<mxfile host="app.diagrams.net" modified="2022-04-09T20:57:10.700Z" agent="5.0 (Windows NT 10.0; Win64; x64) AppleWebKit/537.36 (KHTML, like Gecko) Chrome/100.0.4896.75 Safari/537.36" etag="zdvcFbP9oflMWQVlWcH9" version="17.4.2" type="github" pages="6">
  <diagram id="rwcMcCgDk-_x1VPpGv9h" name="EX I (A)">
    <mxGraphModel dx="2414" dy="856" grid="1" gridSize="10" guides="1" tooltips="1" connect="1" arrows="1" fold="1" page="1" pageScale="1" pageWidth="850" pageHeight="1100" math="0" shadow="0">
      <root>
        <mxCell id="0" />
        <mxCell id="1" parent="0" />
        <mxCell id="CxhIArn5IuLjye6y6IMf-73" value="Departament" style="whiteSpace=wrap;html=1;align=center;fillColor=#f8cecc;strokeColor=#b85450;" vertex="1" parent="1">
          <mxGeometry x="-690" y="190" width="120" height="80" as="geometry" />
        </mxCell>
        <mxCell id="CxhIArn5IuLjye6y6IMf-74" value="Angajati" style="whiteSpace=wrap;html=1;align=center;fillColor=#f8cecc;strokeColor=#b85450;" vertex="1" parent="1">
          <mxGeometry x="-150" y="230" width="100" height="40" as="geometry" />
        </mxCell>
        <mxCell id="CxhIArn5IuLjye6y6IMf-75" value="Lucreaza" style="shape=rhombus;perimeter=rhombusPerimeter;whiteSpace=wrap;html=1;align=center;fillColor=#f8cecc;strokeColor=#b85450;" vertex="1" parent="1">
          <mxGeometry x="-470" y="210" width="120" height="60" as="geometry" />
        </mxCell>
        <mxCell id="CxhIArn5IuLjye6y6IMf-76" style="edgeStyle=orthogonalEdgeStyle;rounded=0;orthogonalLoop=1;jettySize=auto;html=1;entryX=0.25;entryY=0;entryDx=0;entryDy=0;" edge="1" parent="1" source="CxhIArn5IuLjye6y6IMf-78" target="CxhIArn5IuLjye6y6IMf-73">
          <mxGeometry relative="1" as="geometry" />
        </mxCell>
        <mxCell id="CxhIArn5IuLjye6y6IMf-77" style="edgeStyle=orthogonalEdgeStyle;rounded=0;orthogonalLoop=1;jettySize=auto;html=1;" edge="1" parent="1">
          <mxGeometry relative="1" as="geometry">
            <mxPoint x="-690" y="140" as="targetPoint" />
            <mxPoint x="-690" y="120" as="sourcePoint" />
          </mxGeometry>
        </mxCell>
        <mxCell id="CxhIArn5IuLjye6y6IMf-78" value="Nr. angajati" style="ellipse;whiteSpace=wrap;html=1;align=center;fillColor=#d5e8d4;strokeColor=#82b366;" vertex="1" parent="1">
          <mxGeometry x="-740" y="80" width="100" height="50" as="geometry" />
        </mxCell>
        <mxCell id="CxhIArn5IuLjye6y6IMf-79" style="edgeStyle=orthogonalEdgeStyle;rounded=0;orthogonalLoop=1;jettySize=auto;html=1;entryX=0.75;entryY=0;entryDx=0;entryDy=0;" edge="1" parent="1" source="CxhIArn5IuLjye6y6IMf-80" target="CxhIArn5IuLjye6y6IMf-73">
          <mxGeometry relative="1" as="geometry" />
        </mxCell>
        <mxCell id="CxhIArn5IuLjye6y6IMf-80" value="Nume" style="ellipse;whiteSpace=wrap;html=1;align=center;fillColor=#d5e8d4;strokeColor=#82b366;" vertex="1" parent="1">
          <mxGeometry x="-510" y="80" width="100" height="70" as="geometry" />
        </mxCell>
        <mxCell id="CxhIArn5IuLjye6y6IMf-81" style="edgeStyle=orthogonalEdgeStyle;rounded=0;orthogonalLoop=1;jettySize=auto;html=1;entryX=0.25;entryY=1;entryDx=0;entryDy=0;" edge="1" parent="1" source="CxhIArn5IuLjye6y6IMf-82" target="CxhIArn5IuLjye6y6IMf-73">
          <mxGeometry relative="1" as="geometry" />
        </mxCell>
        <mxCell id="CxhIArn5IuLjye6y6IMf-82" value="Adresa" style="ellipse;shape=doubleEllipse;margin=3;whiteSpace=wrap;html=1;align=center;fillColor=#d5e8d4;strokeColor=#82b366;" vertex="1" parent="1">
          <mxGeometry x="-750" y="330" width="100" height="40" as="geometry" />
        </mxCell>
        <mxCell id="CxhIArn5IuLjye6y6IMf-83" style="edgeStyle=orthogonalEdgeStyle;rounded=0;orthogonalLoop=1;jettySize=auto;html=1;entryX=0.75;entryY=1;entryDx=0;entryDy=0;" edge="1" parent="1" source="CxhIArn5IuLjye6y6IMf-84" target="CxhIArn5IuLjye6y6IMf-73">
          <mxGeometry relative="1" as="geometry" />
        </mxCell>
        <mxCell id="CxhIArn5IuLjye6y6IMf-84" value="ID_Departament" style="ellipse;whiteSpace=wrap;html=1;align=center;fillColor=#ffe6cc;strokeColor=#d79b00;" vertex="1" parent="1">
          <mxGeometry x="-580" y="330" width="100" height="40" as="geometry" />
        </mxCell>
        <mxCell id="CxhIArn5IuLjye6y6IMf-85" style="edgeStyle=orthogonalEdgeStyle;rounded=0;orthogonalLoop=1;jettySize=auto;html=1;entryX=0.1;entryY=-0.05;entryDx=0;entryDy=0;entryPerimeter=0;" edge="1" parent="1" source="CxhIArn5IuLjye6y6IMf-86" target="CxhIArn5IuLjye6y6IMf-74">
          <mxGeometry relative="1" as="geometry" />
        </mxCell>
        <mxCell id="CxhIArn5IuLjye6y6IMf-86" value="Nume" style="ellipse;whiteSpace=wrap;html=1;align=center;fillColor=#d5e8d4;strokeColor=#82b366;" vertex="1" parent="1">
          <mxGeometry x="-250" y="160" width="100" height="40" as="geometry" />
        </mxCell>
        <mxCell id="CxhIArn5IuLjye6y6IMf-87" style="edgeStyle=orthogonalEdgeStyle;rounded=0;orthogonalLoop=1;jettySize=auto;html=1;entryX=0.43;entryY=0.05;entryDx=0;entryDy=0;entryPerimeter=0;" edge="1" parent="1" source="CxhIArn5IuLjye6y6IMf-88" target="CxhIArn5IuLjye6y6IMf-74">
          <mxGeometry relative="1" as="geometry" />
        </mxCell>
        <mxCell id="CxhIArn5IuLjye6y6IMf-88" value="Prenume" style="ellipse;whiteSpace=wrap;html=1;align=center;fillColor=#d5e8d4;strokeColor=#82b366;" vertex="1" parent="1">
          <mxGeometry x="-150" y="150" width="100" height="40" as="geometry" />
        </mxCell>
        <mxCell id="CxhIArn5IuLjye6y6IMf-89" style="edgeStyle=orthogonalEdgeStyle;rounded=0;orthogonalLoop=1;jettySize=auto;html=1;entryX=0.75;entryY=0;entryDx=0;entryDy=0;" edge="1" parent="1" source="CxhIArn5IuLjye6y6IMf-90" target="CxhIArn5IuLjye6y6IMf-74">
          <mxGeometry relative="1" as="geometry" />
        </mxCell>
        <mxCell id="CxhIArn5IuLjye6y6IMf-90" value="Adresa" style="ellipse;shape=doubleEllipse;margin=3;whiteSpace=wrap;html=1;align=center;fillColor=#d5e8d4;strokeColor=#82b366;" vertex="1" parent="1">
          <mxGeometry x="-50" y="150" width="100" height="40" as="geometry" />
        </mxCell>
        <mxCell id="CxhIArn5IuLjye6y6IMf-91" style="edgeStyle=orthogonalEdgeStyle;rounded=0;orthogonalLoop=1;jettySize=auto;html=1;entryX=1;entryY=0.25;entryDx=0;entryDy=0;" edge="1" parent="1" source="CxhIArn5IuLjye6y6IMf-92" target="CxhIArn5IuLjye6y6IMf-74">
          <mxGeometry relative="1" as="geometry" />
        </mxCell>
        <mxCell id="CxhIArn5IuLjye6y6IMf-92" value="ID_Angajat" style="ellipse;whiteSpace=wrap;html=1;align=center;fillColor=#ffe6cc;strokeColor=#d79b00;" vertex="1" parent="1">
          <mxGeometry x="-10" y="210" width="100" height="40" as="geometry" />
        </mxCell>
        <mxCell id="CxhIArn5IuLjye6y6IMf-93" style="edgeStyle=orthogonalEdgeStyle;rounded=0;orthogonalLoop=1;jettySize=auto;html=1;" edge="1" parent="1" source="CxhIArn5IuLjye6y6IMf-94" target="CxhIArn5IuLjye6y6IMf-74">
          <mxGeometry relative="1" as="geometry" />
        </mxCell>
        <mxCell id="CxhIArn5IuLjye6y6IMf-94" value="Data_nasterii" style="ellipse;whiteSpace=wrap;html=1;align=center;fillColor=#d5e8d4;strokeColor=#82b366;" vertex="1" parent="1">
          <mxGeometry x="-10" y="270" width="100" height="40" as="geometry" />
        </mxCell>
        <mxCell id="CxhIArn5IuLjye6y6IMf-95" style="edgeStyle=orthogonalEdgeStyle;rounded=0;orthogonalLoop=1;jettySize=auto;html=1;entryX=0.75;entryY=1;entryDx=0;entryDy=0;" edge="1" parent="1" source="CxhIArn5IuLjye6y6IMf-96" target="CxhIArn5IuLjye6y6IMf-74">
          <mxGeometry relative="1" as="geometry" />
        </mxCell>
        <mxCell id="CxhIArn5IuLjye6y6IMf-96" value="IDNP" style="ellipse;whiteSpace=wrap;html=1;align=center;fillColor=#d5e8d4;strokeColor=#82b366;" vertex="1" parent="1">
          <mxGeometry x="-100" y="310" width="100" height="40" as="geometry" />
        </mxCell>
        <mxCell id="CxhIArn5IuLjye6y6IMf-97" style="edgeStyle=orthogonalEdgeStyle;rounded=0;orthogonalLoop=1;jettySize=auto;html=1;entryX=0.25;entryY=1;entryDx=0;entryDy=0;" edge="1" parent="1" source="CxhIArn5IuLjye6y6IMf-98" target="CxhIArn5IuLjye6y6IMf-74">
          <mxGeometry relative="1" as="geometry" />
        </mxCell>
        <mxCell id="CxhIArn5IuLjye6y6IMf-98" value="Salariu" style="ellipse;whiteSpace=wrap;html=1;align=center;fillColor=#d5e8d4;strokeColor=#82b366;" vertex="1" parent="1">
          <mxGeometry x="-220" y="310" width="100" height="40" as="geometry" />
        </mxCell>
        <mxCell id="CxhIArn5IuLjye6y6IMf-99" value="" style="edgeStyle=entityRelationEdgeStyle;fontSize=12;html=1;endArrow=ERoneToMany;exitX=1;exitY=0.5;exitDx=0;exitDy=0;" edge="1" parent="1" source="CxhIArn5IuLjye6y6IMf-73" target="CxhIArn5IuLjye6y6IMf-75">
          <mxGeometry width="100" height="100" relative="1" as="geometry">
            <mxPoint x="-480" y="280" as="sourcePoint" />
            <mxPoint x="-380" y="180" as="targetPoint" />
          </mxGeometry>
        </mxCell>
        <mxCell id="CxhIArn5IuLjye6y6IMf-100" value="" style="edgeStyle=entityRelationEdgeStyle;fontSize=12;html=1;endArrow=ERmandOne;startArrow=ERmandOne;entryX=0;entryY=0.5;entryDx=0;entryDy=0;" edge="1" parent="1" source="CxhIArn5IuLjye6y6IMf-75" target="CxhIArn5IuLjye6y6IMf-74">
          <mxGeometry width="100" height="100" relative="1" as="geometry">
            <mxPoint x="-290" y="350" as="sourcePoint" />
            <mxPoint x="-190" y="250" as="targetPoint" />
          </mxGeometry>
        </mxCell>
        <mxCell id="CxhIArn5IuLjye6y6IMf-101" style="edgeStyle=orthogonalEdgeStyle;rounded=0;orthogonalLoop=1;jettySize=auto;html=1;entryX=0.5;entryY=0;entryDx=0;entryDy=0;" edge="1" parent="1" source="CxhIArn5IuLjye6y6IMf-102" target="CxhIArn5IuLjye6y6IMf-75">
          <mxGeometry relative="1" as="geometry" />
        </mxCell>
        <mxCell id="CxhIArn5IuLjye6y6IMf-102" value="ID_Departament" style="ellipse;whiteSpace=wrap;html=1;align=center;fillColor=#dae8fc;strokeColor=#6c8ebf;" vertex="1" parent="1">
          <mxGeometry x="-366" y="130" width="100" height="40" as="geometry" />
        </mxCell>
        <mxCell id="CxhIArn5IuLjye6y6IMf-103" style="edgeStyle=orthogonalEdgeStyle;rounded=0;orthogonalLoop=1;jettySize=auto;html=1;entryX=0.5;entryY=1;entryDx=0;entryDy=0;" edge="1" parent="1" source="CxhIArn5IuLjye6y6IMf-104" target="CxhIArn5IuLjye6y6IMf-75">
          <mxGeometry relative="1" as="geometry" />
        </mxCell>
        <mxCell id="CxhIArn5IuLjye6y6IMf-104" value="ID_Angajat" style="ellipse;whiteSpace=wrap;html=1;align=center;fillColor=#dae8fc;strokeColor=#6c8ebf;" vertex="1" parent="1">
          <mxGeometry x="-360" y="310" width="100" height="40" as="geometry" />
        </mxCell>
        <mxCell id="CxhIArn5IuLjye6y6IMf-105" value="Angajati" style="shape=table;startSize=30;container=1;collapsible=1;childLayout=tableLayout;fixedRows=1;rowLines=0;fontStyle=1;align=center;resizeLast=1;fillColor=#dae8fc;strokeColor=#6c8ebf;" vertex="1" parent="1">
          <mxGeometry x="-240" y="420" width="180" height="240" as="geometry">
            <mxRectangle x="580" y="360" width="80" height="30" as="alternateBounds" />
          </mxGeometry>
        </mxCell>
        <mxCell id="CxhIArn5IuLjye6y6IMf-106" value="" style="shape=partialRectangle;collapsible=0;dropTarget=0;pointerEvents=0;fillColor=none;top=0;left=0;bottom=1;right=0;points=[[0,0.5],[1,0.5]];portConstraint=eastwest;" vertex="1" parent="CxhIArn5IuLjye6y6IMf-105">
          <mxGeometry y="30" width="180" height="30" as="geometry" />
        </mxCell>
        <mxCell id="CxhIArn5IuLjye6y6IMf-107" value="PK" style="shape=partialRectangle;connectable=0;fillColor=none;top=0;left=0;bottom=0;right=0;fontStyle=1;overflow=hidden;" vertex="1" parent="CxhIArn5IuLjye6y6IMf-106">
          <mxGeometry width="30" height="30" as="geometry">
            <mxRectangle width="30" height="30" as="alternateBounds" />
          </mxGeometry>
        </mxCell>
        <mxCell id="CxhIArn5IuLjye6y6IMf-108" value="ID_Angajat" style="shape=partialRectangle;connectable=0;fillColor=none;top=0;left=0;bottom=0;right=0;align=left;spacingLeft=6;fontStyle=5;overflow=hidden;" vertex="1" parent="CxhIArn5IuLjye6y6IMf-106">
          <mxGeometry x="30" width="150" height="30" as="geometry">
            <mxRectangle width="150" height="30" as="alternateBounds" />
          </mxGeometry>
        </mxCell>
        <mxCell id="CxhIArn5IuLjye6y6IMf-109" value="" style="shape=partialRectangle;collapsible=0;dropTarget=0;pointerEvents=0;fillColor=none;top=0;left=0;bottom=0;right=0;points=[[0,0.5],[1,0.5]];portConstraint=eastwest;" vertex="1" parent="CxhIArn5IuLjye6y6IMf-105">
          <mxGeometry y="60" width="180" height="30" as="geometry" />
        </mxCell>
        <mxCell id="CxhIArn5IuLjye6y6IMf-110" value="" style="shape=partialRectangle;connectable=0;fillColor=none;top=0;left=0;bottom=0;right=0;editable=1;overflow=hidden;" vertex="1" parent="CxhIArn5IuLjye6y6IMf-109">
          <mxGeometry width="30" height="30" as="geometry">
            <mxRectangle width="30" height="30" as="alternateBounds" />
          </mxGeometry>
        </mxCell>
        <mxCell id="CxhIArn5IuLjye6y6IMf-111" value="IDNP" style="shape=partialRectangle;connectable=0;fillColor=none;top=0;left=0;bottom=0;right=0;align=left;spacingLeft=6;overflow=hidden;" vertex="1" parent="CxhIArn5IuLjye6y6IMf-109">
          <mxGeometry x="30" width="150" height="30" as="geometry">
            <mxRectangle width="150" height="30" as="alternateBounds" />
          </mxGeometry>
        </mxCell>
        <mxCell id="CxhIArn5IuLjye6y6IMf-112" value="" style="shape=partialRectangle;collapsible=0;dropTarget=0;pointerEvents=0;fillColor=none;top=0;left=0;bottom=0;right=0;points=[[0,0.5],[1,0.5]];portConstraint=eastwest;" vertex="1" parent="CxhIArn5IuLjye6y6IMf-105">
          <mxGeometry y="90" width="180" height="30" as="geometry" />
        </mxCell>
        <mxCell id="CxhIArn5IuLjye6y6IMf-113" value="" style="shape=partialRectangle;connectable=0;fillColor=none;top=0;left=0;bottom=0;right=0;editable=1;overflow=hidden;" vertex="1" parent="CxhIArn5IuLjye6y6IMf-112">
          <mxGeometry width="30" height="30" as="geometry">
            <mxRectangle width="30" height="30" as="alternateBounds" />
          </mxGeometry>
        </mxCell>
        <mxCell id="CxhIArn5IuLjye6y6IMf-114" value="Nume" style="shape=partialRectangle;connectable=0;fillColor=none;top=0;left=0;bottom=0;right=0;align=left;spacingLeft=6;overflow=hidden;" vertex="1" parent="CxhIArn5IuLjye6y6IMf-112">
          <mxGeometry x="30" width="150" height="30" as="geometry">
            <mxRectangle width="150" height="30" as="alternateBounds" />
          </mxGeometry>
        </mxCell>
        <mxCell id="CxhIArn5IuLjye6y6IMf-115" value="" style="shape=partialRectangle;collapsible=0;dropTarget=0;pointerEvents=0;fillColor=none;top=0;left=0;bottom=0;right=0;points=[[0,0.5],[1,0.5]];portConstraint=eastwest;" vertex="1" parent="CxhIArn5IuLjye6y6IMf-105">
          <mxGeometry y="120" width="180" height="30" as="geometry" />
        </mxCell>
        <mxCell id="CxhIArn5IuLjye6y6IMf-116" value="" style="shape=partialRectangle;connectable=0;fillColor=none;top=0;left=0;bottom=0;right=0;editable=1;overflow=hidden;" vertex="1" parent="CxhIArn5IuLjye6y6IMf-115">
          <mxGeometry width="30" height="30" as="geometry">
            <mxRectangle width="30" height="30" as="alternateBounds" />
          </mxGeometry>
        </mxCell>
        <mxCell id="CxhIArn5IuLjye6y6IMf-117" value="Prenume" style="shape=partialRectangle;connectable=0;fillColor=none;top=0;left=0;bottom=0;right=0;align=left;spacingLeft=6;overflow=hidden;" vertex="1" parent="CxhIArn5IuLjye6y6IMf-115">
          <mxGeometry x="30" width="150" height="30" as="geometry">
            <mxRectangle width="150" height="30" as="alternateBounds" />
          </mxGeometry>
        </mxCell>
        <mxCell id="CxhIArn5IuLjye6y6IMf-118" value="" style="shape=partialRectangle;collapsible=0;dropTarget=0;pointerEvents=0;fillColor=none;top=0;left=0;bottom=0;right=0;points=[[0,0.5],[1,0.5]];portConstraint=eastwest;" vertex="1" parent="CxhIArn5IuLjye6y6IMf-105">
          <mxGeometry y="150" width="180" height="30" as="geometry" />
        </mxCell>
        <mxCell id="CxhIArn5IuLjye6y6IMf-119" value="" style="shape=partialRectangle;connectable=0;fillColor=none;top=0;left=0;bottom=0;right=0;editable=1;overflow=hidden;" vertex="1" parent="CxhIArn5IuLjye6y6IMf-118">
          <mxGeometry width="30" height="30" as="geometry">
            <mxRectangle width="30" height="30" as="alternateBounds" />
          </mxGeometry>
        </mxCell>
        <mxCell id="CxhIArn5IuLjye6y6IMf-120" value="Adresa" style="shape=partialRectangle;connectable=0;fillColor=none;top=0;left=0;bottom=0;right=0;align=left;spacingLeft=6;overflow=hidden;" vertex="1" parent="CxhIArn5IuLjye6y6IMf-118">
          <mxGeometry x="30" width="150" height="30" as="geometry">
            <mxRectangle width="150" height="30" as="alternateBounds" />
          </mxGeometry>
        </mxCell>
        <mxCell id="CxhIArn5IuLjye6y6IMf-121" value="" style="shape=partialRectangle;collapsible=0;dropTarget=0;pointerEvents=0;fillColor=none;top=0;left=0;bottom=0;right=0;points=[[0,0.5],[1,0.5]];portConstraint=eastwest;" vertex="1" parent="CxhIArn5IuLjye6y6IMf-105">
          <mxGeometry y="180" width="180" height="30" as="geometry" />
        </mxCell>
        <mxCell id="CxhIArn5IuLjye6y6IMf-122" value="" style="shape=partialRectangle;connectable=0;fillColor=none;top=0;left=0;bottom=0;right=0;editable=1;overflow=hidden;" vertex="1" parent="CxhIArn5IuLjye6y6IMf-121">
          <mxGeometry width="30" height="30" as="geometry">
            <mxRectangle width="30" height="30" as="alternateBounds" />
          </mxGeometry>
        </mxCell>
        <mxCell id="CxhIArn5IuLjye6y6IMf-123" value="Data nasterii" style="shape=partialRectangle;connectable=0;fillColor=none;top=0;left=0;bottom=0;right=0;align=left;spacingLeft=6;overflow=hidden;" vertex="1" parent="CxhIArn5IuLjye6y6IMf-121">
          <mxGeometry x="30" width="150" height="30" as="geometry">
            <mxRectangle width="150" height="30" as="alternateBounds" />
          </mxGeometry>
        </mxCell>
        <mxCell id="CxhIArn5IuLjye6y6IMf-124" value="" style="shape=partialRectangle;collapsible=0;dropTarget=0;pointerEvents=0;fillColor=none;top=0;left=0;bottom=0;right=0;points=[[0,0.5],[1,0.5]];portConstraint=eastwest;" vertex="1" parent="CxhIArn5IuLjye6y6IMf-105">
          <mxGeometry y="210" width="180" height="30" as="geometry" />
        </mxCell>
        <mxCell id="CxhIArn5IuLjye6y6IMf-125" value="" style="shape=partialRectangle;connectable=0;fillColor=none;top=0;left=0;bottom=0;right=0;editable=1;overflow=hidden;" vertex="1" parent="CxhIArn5IuLjye6y6IMf-124">
          <mxGeometry width="30" height="30" as="geometry">
            <mxRectangle width="30" height="30" as="alternateBounds" />
          </mxGeometry>
        </mxCell>
        <mxCell id="CxhIArn5IuLjye6y6IMf-126" value="Salariu" style="shape=partialRectangle;connectable=0;fillColor=none;top=0;left=0;bottom=0;right=0;align=left;spacingLeft=6;overflow=hidden;" vertex="1" parent="CxhIArn5IuLjye6y6IMf-124">
          <mxGeometry x="30" width="150" height="30" as="geometry">
            <mxRectangle width="150" height="30" as="alternateBounds" />
          </mxGeometry>
        </mxCell>
        <mxCell id="CxhIArn5IuLjye6y6IMf-127" value="Departament" style="shape=table;startSize=30;container=1;collapsible=1;childLayout=tableLayout;fixedRows=1;rowLines=0;fontStyle=1;align=center;resizeLast=1;fillColor=#dae8fc;strokeColor=#6c8ebf;" vertex="1" parent="1">
          <mxGeometry x="-730" y="420" width="180" height="160" as="geometry" />
        </mxCell>
        <mxCell id="CxhIArn5IuLjye6y6IMf-128" value="" style="shape=partialRectangle;collapsible=0;dropTarget=0;pointerEvents=0;fillColor=none;top=0;left=0;bottom=1;right=0;points=[[0,0.5],[1,0.5]];portConstraint=eastwest;" vertex="1" parent="CxhIArn5IuLjye6y6IMf-127">
          <mxGeometry y="30" width="180" height="30" as="geometry" />
        </mxCell>
        <mxCell id="CxhIArn5IuLjye6y6IMf-129" value="PK" style="shape=partialRectangle;connectable=0;fillColor=none;top=0;left=0;bottom=0;right=0;fontStyle=1;overflow=hidden;" vertex="1" parent="CxhIArn5IuLjye6y6IMf-128">
          <mxGeometry width="30" height="30" as="geometry">
            <mxRectangle width="30" height="30" as="alternateBounds" />
          </mxGeometry>
        </mxCell>
        <mxCell id="CxhIArn5IuLjye6y6IMf-130" value="ID_Departament" style="shape=partialRectangle;connectable=0;fillColor=none;top=0;left=0;bottom=0;right=0;align=left;spacingLeft=6;fontStyle=5;overflow=hidden;" vertex="1" parent="CxhIArn5IuLjye6y6IMf-128">
          <mxGeometry x="30" width="150" height="30" as="geometry">
            <mxRectangle width="150" height="30" as="alternateBounds" />
          </mxGeometry>
        </mxCell>
        <mxCell id="CxhIArn5IuLjye6y6IMf-131" value="" style="shape=partialRectangle;collapsible=0;dropTarget=0;pointerEvents=0;fillColor=none;top=0;left=0;bottom=0;right=0;points=[[0,0.5],[1,0.5]];portConstraint=eastwest;" vertex="1" parent="CxhIArn5IuLjye6y6IMf-127">
          <mxGeometry y="60" width="180" height="30" as="geometry" />
        </mxCell>
        <mxCell id="CxhIArn5IuLjye6y6IMf-132" value="" style="shape=partialRectangle;connectable=0;fillColor=none;top=0;left=0;bottom=0;right=0;editable=1;overflow=hidden;" vertex="1" parent="CxhIArn5IuLjye6y6IMf-131">
          <mxGeometry width="30" height="30" as="geometry">
            <mxRectangle width="30" height="30" as="alternateBounds" />
          </mxGeometry>
        </mxCell>
        <mxCell id="CxhIArn5IuLjye6y6IMf-133" value="Nume" style="shape=partialRectangle;connectable=0;fillColor=none;top=0;left=0;bottom=0;right=0;align=left;spacingLeft=6;overflow=hidden;" vertex="1" parent="CxhIArn5IuLjye6y6IMf-131">
          <mxGeometry x="30" width="150" height="30" as="geometry">
            <mxRectangle width="150" height="30" as="alternateBounds" />
          </mxGeometry>
        </mxCell>
        <mxCell id="CxhIArn5IuLjye6y6IMf-134" value="" style="shape=partialRectangle;collapsible=0;dropTarget=0;pointerEvents=0;fillColor=none;top=0;left=0;bottom=0;right=0;points=[[0,0.5],[1,0.5]];portConstraint=eastwest;" vertex="1" parent="CxhIArn5IuLjye6y6IMf-127">
          <mxGeometry y="90" width="180" height="30" as="geometry" />
        </mxCell>
        <mxCell id="CxhIArn5IuLjye6y6IMf-135" value="" style="shape=partialRectangle;connectable=0;fillColor=none;top=0;left=0;bottom=0;right=0;editable=1;overflow=hidden;" vertex="1" parent="CxhIArn5IuLjye6y6IMf-134">
          <mxGeometry width="30" height="30" as="geometry">
            <mxRectangle width="30" height="30" as="alternateBounds" />
          </mxGeometry>
        </mxCell>
        <mxCell id="CxhIArn5IuLjye6y6IMf-136" value="Adresa" style="shape=partialRectangle;connectable=0;fillColor=none;top=0;left=0;bottom=0;right=0;align=left;spacingLeft=6;overflow=hidden;" vertex="1" parent="CxhIArn5IuLjye6y6IMf-134">
          <mxGeometry x="30" width="150" height="30" as="geometry">
            <mxRectangle width="150" height="30" as="alternateBounds" />
          </mxGeometry>
        </mxCell>
        <mxCell id="CxhIArn5IuLjye6y6IMf-137" value="" style="shape=partialRectangle;collapsible=0;dropTarget=0;pointerEvents=0;fillColor=none;top=0;left=0;bottom=0;right=0;points=[[0,0.5],[1,0.5]];portConstraint=eastwest;" vertex="1" parent="CxhIArn5IuLjye6y6IMf-127">
          <mxGeometry y="120" width="180" height="30" as="geometry" />
        </mxCell>
        <mxCell id="CxhIArn5IuLjye6y6IMf-138" value="" style="shape=partialRectangle;connectable=0;fillColor=none;top=0;left=0;bottom=0;right=0;editable=1;overflow=hidden;" vertex="1" parent="CxhIArn5IuLjye6y6IMf-137">
          <mxGeometry width="30" height="30" as="geometry">
            <mxRectangle width="30" height="30" as="alternateBounds" />
          </mxGeometry>
        </mxCell>
        <mxCell id="CxhIArn5IuLjye6y6IMf-139" value="Nr. angajati" style="shape=partialRectangle;connectable=0;fillColor=none;top=0;left=0;bottom=0;right=0;align=left;spacingLeft=6;overflow=hidden;" vertex="1" parent="CxhIArn5IuLjye6y6IMf-137">
          <mxGeometry x="30" width="150" height="30" as="geometry">
            <mxRectangle width="150" height="30" as="alternateBounds" />
          </mxGeometry>
        </mxCell>
        <mxCell id="CxhIArn5IuLjye6y6IMf-140" value="Lucreaza" style="swimlane;fontStyle=0;childLayout=stackLayout;horizontal=1;startSize=26;horizontalStack=0;resizeParent=1;resizeParentMax=0;resizeLast=0;collapsible=1;marginBottom=0;align=center;fontSize=14;fillColor=#dae8fc;strokeColor=#6c8ebf;" vertex="1" parent="1">
          <mxGeometry x="-476" y="420" width="160" height="86" as="geometry">
            <mxRectangle x="340" y="360" width="90" height="26" as="alternateBounds" />
          </mxGeometry>
        </mxCell>
        <mxCell id="CxhIArn5IuLjye6y6IMf-141" value="ID_Departament" style="text;strokeColor=none;fillColor=none;spacingLeft=4;spacingRight=4;overflow=hidden;rotatable=0;points=[[0,0.5],[1,0.5]];portConstraint=eastwest;fontSize=12;" vertex="1" parent="CxhIArn5IuLjye6y6IMf-140">
          <mxGeometry y="26" width="160" height="30" as="geometry" />
        </mxCell>
        <mxCell id="CxhIArn5IuLjye6y6IMf-142" value="ID_Angajat" style="text;strokeColor=none;fillColor=none;spacingLeft=4;spacingRight=4;overflow=hidden;rotatable=0;points=[[0,0.5],[1,0.5]];portConstraint=eastwest;fontSize=12;" vertex="1" parent="CxhIArn5IuLjye6y6IMf-140">
          <mxGeometry y="56" width="160" height="30" as="geometry" />
        </mxCell>
        <mxCell id="CxhIArn5IuLjye6y6IMf-143" value="" style="edgeStyle=entityRelationEdgeStyle;fontSize=12;html=1;endArrow=ERmandOne;startArrow=ERmandOne;" edge="1" parent="1" source="CxhIArn5IuLjye6y6IMf-142" target="CxhIArn5IuLjye6y6IMf-106">
          <mxGeometry width="100" height="100" relative="1" as="geometry">
            <mxPoint x="-260" y="645" as="sourcePoint" />
            <mxPoint x="-160" y="545" as="targetPoint" />
          </mxGeometry>
        </mxCell>
        <mxCell id="CxhIArn5IuLjye6y6IMf-144" value="" style="edgeStyle=entityRelationEdgeStyle;fontSize=12;html=1;endArrow=ERoneToMany;entryX=0;entryY=0.5;entryDx=0;entryDy=0;exitX=1;exitY=0.5;exitDx=0;exitDy=0;" edge="1" parent="1" source="CxhIArn5IuLjye6y6IMf-128" target="CxhIArn5IuLjye6y6IMf-141">
          <mxGeometry width="100" height="100" relative="1" as="geometry">
            <mxPoint x="-500" y="675" as="sourcePoint" />
            <mxPoint x="-400" y="575" as="targetPoint" />
          </mxGeometry>
        </mxCell>
      </root>
    </mxGraphModel>
  </diagram>
  <diagram id="-S0Rqv1geDUbqSEOL4Gk" name="EX I (B)">
    <mxGraphModel dx="2153" dy="713" grid="1" gridSize="10" guides="1" tooltips="1" connect="1" arrows="1" fold="1" page="1" pageScale="1" pageWidth="850" pageHeight="1100" math="0" shadow="0">
      <root>
        <mxCell id="0" />
        <mxCell id="1" parent="0" />
        <mxCell id="sn3jQVdKhQQqHqmtXbJt-1" value="Autor" style="whiteSpace=wrap;html=1;align=center;fillColor=#dae8fc;strokeColor=#6c8ebf;" vertex="1" parent="1">
          <mxGeometry x="-60" y="150" width="100" height="40" as="geometry" />
        </mxCell>
        <mxCell id="sn3jQVdKhQQqHqmtXbJt-2" value="Carti" style="whiteSpace=wrap;html=1;align=center;fillColor=#dae8fc;strokeColor=#6c8ebf;" vertex="1" parent="1">
          <mxGeometry x="380" y="230" width="100" height="40" as="geometry" />
        </mxCell>
        <mxCell id="sn3jQVdKhQQqHqmtXbJt-3" value="Scrie" style="shape=rhombus;perimeter=rhombusPerimeter;whiteSpace=wrap;html=1;align=center;fillColor=#dae8fc;strokeColor=#6c8ebf;" vertex="1" parent="1">
          <mxGeometry x="160" y="250" width="120" height="60" as="geometry" />
        </mxCell>
        <mxCell id="sn3jQVdKhQQqHqmtXbJt-4" style="edgeStyle=orthogonalEdgeStyle;rounded=0;orthogonalLoop=1;jettySize=auto;html=1;entryX=0.13;entryY=0.025;entryDx=0;entryDy=0;entryPerimeter=0;" edge="1" parent="1" source="sn3jQVdKhQQqHqmtXbJt-5" target="sn3jQVdKhQQqHqmtXbJt-1">
          <mxGeometry relative="1" as="geometry" />
        </mxCell>
        <mxCell id="sn3jQVdKhQQqHqmtXbJt-5" value="ID_Autor" style="ellipse;whiteSpace=wrap;html=1;align=center;fillColor=#ffe6cc;strokeColor=#d79b00;" vertex="1" parent="1">
          <mxGeometry x="-210" y="70" width="100" height="40" as="geometry" />
        </mxCell>
        <mxCell id="sn3jQVdKhQQqHqmtXbJt-6" style="edgeStyle=orthogonalEdgeStyle;rounded=0;orthogonalLoop=1;jettySize=auto;html=1;entryX=0.75;entryY=0;entryDx=0;entryDy=0;" edge="1" parent="1" source="sn3jQVdKhQQqHqmtXbJt-7" target="sn3jQVdKhQQqHqmtXbJt-1">
          <mxGeometry relative="1" as="geometry" />
        </mxCell>
        <mxCell id="sn3jQVdKhQQqHqmtXbJt-7" value="Nume" style="ellipse;whiteSpace=wrap;html=1;align=center;" vertex="1" parent="1">
          <mxGeometry x="60" y="70" width="100" height="40" as="geometry" />
        </mxCell>
        <mxCell id="sn3jQVdKhQQqHqmtXbJt-8" style="edgeStyle=orthogonalEdgeStyle;rounded=0;orthogonalLoop=1;jettySize=auto;html=1;entryX=0.17;entryY=1.025;entryDx=0;entryDy=0;entryPerimeter=0;" edge="1" parent="1" source="sn3jQVdKhQQqHqmtXbJt-9" target="sn3jQVdKhQQqHqmtXbJt-1">
          <mxGeometry relative="1" as="geometry" />
        </mxCell>
        <mxCell id="sn3jQVdKhQQqHqmtXbJt-9" value="Adresa" style="ellipse;shape=doubleEllipse;margin=3;whiteSpace=wrap;html=1;align=center;" vertex="1" parent="1">
          <mxGeometry x="-230" y="220" width="100" height="40" as="geometry" />
        </mxCell>
        <mxCell id="sn3jQVdKhQQqHqmtXbJt-10" style="edgeStyle=orthogonalEdgeStyle;rounded=0;orthogonalLoop=1;jettySize=auto;html=1;entryX=0.75;entryY=1;entryDx=0;entryDy=0;" edge="1" parent="1" source="sn3jQVdKhQQqHqmtXbJt-11" target="sn3jQVdKhQQqHqmtXbJt-1">
          <mxGeometry relative="1" as="geometry">
            <Array as="points">
              <mxPoint x="15" y="310" />
            </Array>
          </mxGeometry>
        </mxCell>
        <mxCell id="sn3jQVdKhQQqHqmtXbJt-11" value="Nr. Carti" style="ellipse;whiteSpace=wrap;html=1;align=center;" vertex="1" parent="1">
          <mxGeometry x="-230" y="290" width="100" height="40" as="geometry" />
        </mxCell>
        <mxCell id="sn3jQVdKhQQqHqmtXbJt-12" style="edgeStyle=orthogonalEdgeStyle;rounded=0;orthogonalLoop=1;jettySize=auto;html=1;entryX=0.17;entryY=0.05;entryDx=0;entryDy=0;entryPerimeter=0;" edge="1" parent="1" source="sn3jQVdKhQQqHqmtXbJt-13" target="sn3jQVdKhQQqHqmtXbJt-2">
          <mxGeometry relative="1" as="geometry" />
        </mxCell>
        <mxCell id="sn3jQVdKhQQqHqmtXbJt-13" value="ID_Carte" style="ellipse;whiteSpace=wrap;html=1;align=center;fillColor=#ffe6cc;strokeColor=#d79b00;" vertex="1" parent="1">
          <mxGeometry x="214" y="110" width="100" height="40" as="geometry" />
        </mxCell>
        <mxCell id="sn3jQVdKhQQqHqmtXbJt-14" style="edgeStyle=orthogonalEdgeStyle;rounded=0;orthogonalLoop=1;jettySize=auto;html=1;entryX=0;entryY=0.5;entryDx=0;entryDy=0;" edge="1" parent="1" source="sn3jQVdKhQQqHqmtXbJt-15" target="sn3jQVdKhQQqHqmtXbJt-1">
          <mxGeometry relative="1" as="geometry" />
        </mxCell>
        <mxCell id="sn3jQVdKhQQqHqmtXbJt-15" value="Biografie" style="ellipse;whiteSpace=wrap;html=1;align=center;" vertex="1" parent="1">
          <mxGeometry x="-230" y="150" width="100" height="40" as="geometry" />
        </mxCell>
        <mxCell id="sn3jQVdKhQQqHqmtXbJt-16" style="edgeStyle=orthogonalEdgeStyle;rounded=0;orthogonalLoop=1;jettySize=auto;html=1;entryX=0.35;entryY=0.025;entryDx=0;entryDy=0;entryPerimeter=0;" edge="1" parent="1" source="sn3jQVdKhQQqHqmtXbJt-17" target="sn3jQVdKhQQqHqmtXbJt-2">
          <mxGeometry relative="1" as="geometry" />
        </mxCell>
        <mxCell id="sn3jQVdKhQQqHqmtXbJt-17" value="Titlu" style="ellipse;whiteSpace=wrap;html=1;align=center;" vertex="1" parent="1">
          <mxGeometry x="380" y="90" width="100" height="40" as="geometry" />
        </mxCell>
        <mxCell id="sn3jQVdKhQQqHqmtXbJt-18" style="edgeStyle=orthogonalEdgeStyle;rounded=0;orthogonalLoop=1;jettySize=auto;html=1;entryX=0.75;entryY=0;entryDx=0;entryDy=0;" edge="1" parent="1" source="sn3jQVdKhQQqHqmtXbJt-19" target="sn3jQVdKhQQqHqmtXbJt-2">
          <mxGeometry relative="1" as="geometry">
            <Array as="points">
              <mxPoint x="480" y="130" />
              <mxPoint x="480" y="200" />
              <mxPoint x="455" y="200" />
            </Array>
          </mxGeometry>
        </mxCell>
        <mxCell id="sn3jQVdKhQQqHqmtXbJt-19" value="Nr. Pagini" style="ellipse;whiteSpace=wrap;html=1;align=center;" vertex="1" parent="1">
          <mxGeometry x="520" y="110" width="100" height="40" as="geometry" />
        </mxCell>
        <mxCell id="sn3jQVdKhQQqHqmtXbJt-20" style="edgeStyle=orthogonalEdgeStyle;rounded=0;orthogonalLoop=1;jettySize=auto;html=1;entryX=1;entryY=0.5;entryDx=0;entryDy=0;" edge="1" parent="1" source="sn3jQVdKhQQqHqmtXbJt-21" target="sn3jQVdKhQQqHqmtXbJt-2">
          <mxGeometry relative="1" as="geometry" />
        </mxCell>
        <mxCell id="sn3jQVdKhQQqHqmtXbJt-21" value="Introducere" style="ellipse;whiteSpace=wrap;html=1;align=center;" vertex="1" parent="1">
          <mxGeometry x="527" y="230" width="100" height="40" as="geometry" />
        </mxCell>
        <mxCell id="sn3jQVdKhQQqHqmtXbJt-22" style="edgeStyle=orthogonalEdgeStyle;rounded=0;orthogonalLoop=1;jettySize=auto;html=1;entryX=0.25;entryY=1;entryDx=0;entryDy=0;" edge="1" parent="1" source="sn3jQVdKhQQqHqmtXbJt-23" target="sn3jQVdKhQQqHqmtXbJt-2">
          <mxGeometry relative="1" as="geometry" />
        </mxCell>
        <mxCell id="sn3jQVdKhQQqHqmtXbJt-23" value="Editura" style="ellipse;whiteSpace=wrap;html=1;align=center;" vertex="1" parent="1">
          <mxGeometry x="260" y="330" width="100" height="40" as="geometry" />
        </mxCell>
        <mxCell id="sn3jQVdKhQQqHqmtXbJt-24" style="edgeStyle=orthogonalEdgeStyle;rounded=0;orthogonalLoop=1;jettySize=auto;html=1;entryX=0.5;entryY=1;entryDx=0;entryDy=0;" edge="1" parent="1" source="sn3jQVdKhQQqHqmtXbJt-25" target="sn3jQVdKhQQqHqmtXbJt-2">
          <mxGeometry relative="1" as="geometry" />
        </mxCell>
        <mxCell id="sn3jQVdKhQQqHqmtXbJt-25" value="ISBN" style="ellipse;whiteSpace=wrap;html=1;align=center;" vertex="1" parent="1">
          <mxGeometry x="380" y="380" width="100" height="40" as="geometry" />
        </mxCell>
        <mxCell id="sn3jQVdKhQQqHqmtXbJt-26" style="edgeStyle=orthogonalEdgeStyle;rounded=0;orthogonalLoop=1;jettySize=auto;html=1;entryX=0.75;entryY=1;entryDx=0;entryDy=0;" edge="1" parent="1" source="sn3jQVdKhQQqHqmtXbJt-27" target="sn3jQVdKhQQqHqmtXbJt-2">
          <mxGeometry relative="1" as="geometry" />
        </mxCell>
        <mxCell id="sn3jQVdKhQQqHqmtXbJt-27" value="Cuprins" style="ellipse;whiteSpace=wrap;html=1;align=center;" vertex="1" parent="1">
          <mxGeometry x="500" y="320" width="100" height="40" as="geometry" />
        </mxCell>
        <mxCell id="sn3jQVdKhQQqHqmtXbJt-28" value="" style="edgeStyle=entityRelationEdgeStyle;fontSize=12;html=1;endArrow=ERoneToMany;entryX=0;entryY=0.5;entryDx=0;entryDy=0;exitX=1;exitY=0.5;exitDx=0;exitDy=0;" edge="1" parent="1" source="sn3jQVdKhQQqHqmtXbJt-1" target="sn3jQVdKhQQqHqmtXbJt-3">
          <mxGeometry width="100" height="100" relative="1" as="geometry">
            <mxPoint x="60" y="400" as="sourcePoint" />
            <mxPoint x="160" y="300" as="targetPoint" />
          </mxGeometry>
        </mxCell>
        <mxCell id="sn3jQVdKhQQqHqmtXbJt-29" value="" style="edgeStyle=entityRelationEdgeStyle;fontSize=12;html=1;endArrow=ERoneToMany;exitX=0;exitY=0.5;exitDx=0;exitDy=0;" edge="1" parent="1" source="sn3jQVdKhQQqHqmtXbJt-2" target="sn3jQVdKhQQqHqmtXbJt-3">
          <mxGeometry width="100" height="100" relative="1" as="geometry">
            <mxPoint x="160" y="510" as="sourcePoint" />
            <mxPoint x="260" y="410" as="targetPoint" />
          </mxGeometry>
        </mxCell>
        <mxCell id="sn3jQVdKhQQqHqmtXbJt-30" value="Carti" style="shape=table;startSize=30;container=1;collapsible=1;childLayout=tableLayout;fixedRows=1;rowLines=0;fontStyle=1;align=center;resizeLast=1;fillColor=#dae8fc;strokeColor=#6c8ebf;" vertex="1" parent="1">
          <mxGeometry x="400" y="470" width="180" height="250" as="geometry" />
        </mxCell>
        <mxCell id="sn3jQVdKhQQqHqmtXbJt-31" value="" style="shape=partialRectangle;collapsible=0;dropTarget=0;pointerEvents=0;fillColor=none;top=0;left=0;bottom=1;right=0;points=[[0,0.5],[1,0.5]];portConstraint=eastwest;" vertex="1" parent="sn3jQVdKhQQqHqmtXbJt-30">
          <mxGeometry y="30" width="180" height="30" as="geometry" />
        </mxCell>
        <mxCell id="sn3jQVdKhQQqHqmtXbJt-32" value="PK" style="shape=partialRectangle;connectable=0;fillColor=none;top=0;left=0;bottom=0;right=0;fontStyle=1;overflow=hidden;" vertex="1" parent="sn3jQVdKhQQqHqmtXbJt-31">
          <mxGeometry width="30" height="30" as="geometry">
            <mxRectangle width="30" height="30" as="alternateBounds" />
          </mxGeometry>
        </mxCell>
        <mxCell id="sn3jQVdKhQQqHqmtXbJt-33" value="ID_Carte" style="shape=partialRectangle;connectable=0;fillColor=none;top=0;left=0;bottom=0;right=0;align=left;spacingLeft=6;fontStyle=5;overflow=hidden;" vertex="1" parent="sn3jQVdKhQQqHqmtXbJt-31">
          <mxGeometry x="30" width="150" height="30" as="geometry">
            <mxRectangle width="150" height="30" as="alternateBounds" />
          </mxGeometry>
        </mxCell>
        <mxCell id="sn3jQVdKhQQqHqmtXbJt-34" value="" style="shape=partialRectangle;collapsible=0;dropTarget=0;pointerEvents=0;fillColor=none;top=0;left=0;bottom=0;right=0;points=[[0,0.5],[1,0.5]];portConstraint=eastwest;" vertex="1" parent="sn3jQVdKhQQqHqmtXbJt-30">
          <mxGeometry y="60" width="180" height="30" as="geometry" />
        </mxCell>
        <mxCell id="sn3jQVdKhQQqHqmtXbJt-35" value="" style="shape=partialRectangle;connectable=0;fillColor=none;top=0;left=0;bottom=0;right=0;editable=1;overflow=hidden;" vertex="1" parent="sn3jQVdKhQQqHqmtXbJt-34">
          <mxGeometry width="30" height="30" as="geometry">
            <mxRectangle width="30" height="30" as="alternateBounds" />
          </mxGeometry>
        </mxCell>
        <mxCell id="sn3jQVdKhQQqHqmtXbJt-36" value="Titlu" style="shape=partialRectangle;connectable=0;fillColor=none;top=0;left=0;bottom=0;right=0;align=left;spacingLeft=6;overflow=hidden;" vertex="1" parent="sn3jQVdKhQQqHqmtXbJt-34">
          <mxGeometry x="30" width="150" height="30" as="geometry">
            <mxRectangle width="150" height="30" as="alternateBounds" />
          </mxGeometry>
        </mxCell>
        <mxCell id="sn3jQVdKhQQqHqmtXbJt-37" value="" style="shape=partialRectangle;collapsible=0;dropTarget=0;pointerEvents=0;fillColor=none;top=0;left=0;bottom=0;right=0;points=[[0,0.5],[1,0.5]];portConstraint=eastwest;" vertex="1" parent="sn3jQVdKhQQqHqmtXbJt-30">
          <mxGeometry y="90" width="180" height="30" as="geometry" />
        </mxCell>
        <mxCell id="sn3jQVdKhQQqHqmtXbJt-38" value="" style="shape=partialRectangle;connectable=0;fillColor=none;top=0;left=0;bottom=0;right=0;editable=1;overflow=hidden;" vertex="1" parent="sn3jQVdKhQQqHqmtXbJt-37">
          <mxGeometry width="30" height="30" as="geometry">
            <mxRectangle width="30" height="30" as="alternateBounds" />
          </mxGeometry>
        </mxCell>
        <mxCell id="sn3jQVdKhQQqHqmtXbJt-39" value="Nr. Pagini" style="shape=partialRectangle;connectable=0;fillColor=none;top=0;left=0;bottom=0;right=0;align=left;spacingLeft=6;overflow=hidden;" vertex="1" parent="sn3jQVdKhQQqHqmtXbJt-37">
          <mxGeometry x="30" width="150" height="30" as="geometry">
            <mxRectangle width="150" height="30" as="alternateBounds" />
          </mxGeometry>
        </mxCell>
        <mxCell id="sn3jQVdKhQQqHqmtXbJt-40" value="" style="shape=partialRectangle;collapsible=0;dropTarget=0;pointerEvents=0;fillColor=none;top=0;left=0;bottom=0;right=0;points=[[0,0.5],[1,0.5]];portConstraint=eastwest;" vertex="1" parent="sn3jQVdKhQQqHqmtXbJt-30">
          <mxGeometry y="120" width="180" height="30" as="geometry" />
        </mxCell>
        <mxCell id="sn3jQVdKhQQqHqmtXbJt-41" value="" style="shape=partialRectangle;connectable=0;fillColor=none;top=0;left=0;bottom=0;right=0;editable=1;overflow=hidden;" vertex="1" parent="sn3jQVdKhQQqHqmtXbJt-40">
          <mxGeometry width="30" height="30" as="geometry">
            <mxRectangle width="30" height="30" as="alternateBounds" />
          </mxGeometry>
        </mxCell>
        <mxCell id="sn3jQVdKhQQqHqmtXbJt-42" value="Introducere" style="shape=partialRectangle;connectable=0;fillColor=none;top=0;left=0;bottom=0;right=0;align=left;spacingLeft=6;overflow=hidden;" vertex="1" parent="sn3jQVdKhQQqHqmtXbJt-40">
          <mxGeometry x="30" width="150" height="30" as="geometry">
            <mxRectangle width="150" height="30" as="alternateBounds" />
          </mxGeometry>
        </mxCell>
        <mxCell id="sn3jQVdKhQQqHqmtXbJt-43" value="" style="shape=partialRectangle;collapsible=0;dropTarget=0;pointerEvents=0;fillColor=none;top=0;left=0;bottom=0;right=0;points=[[0,0.5],[1,0.5]];portConstraint=eastwest;" vertex="1" parent="sn3jQVdKhQQqHqmtXbJt-30">
          <mxGeometry y="150" width="180" height="30" as="geometry" />
        </mxCell>
        <mxCell id="sn3jQVdKhQQqHqmtXbJt-44" value="" style="shape=partialRectangle;connectable=0;fillColor=none;top=0;left=0;bottom=0;right=0;editable=1;overflow=hidden;" vertex="1" parent="sn3jQVdKhQQqHqmtXbJt-43">
          <mxGeometry width="30" height="30" as="geometry">
            <mxRectangle width="30" height="30" as="alternateBounds" />
          </mxGeometry>
        </mxCell>
        <mxCell id="sn3jQVdKhQQqHqmtXbJt-45" value="Cuprins" style="shape=partialRectangle;connectable=0;fillColor=none;top=0;left=0;bottom=0;right=0;align=left;spacingLeft=6;overflow=hidden;" vertex="1" parent="sn3jQVdKhQQqHqmtXbJt-43">
          <mxGeometry x="30" width="150" height="30" as="geometry">
            <mxRectangle width="150" height="30" as="alternateBounds" />
          </mxGeometry>
        </mxCell>
        <mxCell id="sn3jQVdKhQQqHqmtXbJt-46" value="" style="shape=partialRectangle;collapsible=0;dropTarget=0;pointerEvents=0;fillColor=none;top=0;left=0;bottom=0;right=0;points=[[0,0.5],[1,0.5]];portConstraint=eastwest;" vertex="1" parent="sn3jQVdKhQQqHqmtXbJt-30">
          <mxGeometry y="180" width="180" height="30" as="geometry" />
        </mxCell>
        <mxCell id="sn3jQVdKhQQqHqmtXbJt-47" value="" style="shape=partialRectangle;connectable=0;fillColor=none;top=0;left=0;bottom=0;right=0;editable=1;overflow=hidden;" vertex="1" parent="sn3jQVdKhQQqHqmtXbJt-46">
          <mxGeometry width="30" height="30" as="geometry">
            <mxRectangle width="30" height="30" as="alternateBounds" />
          </mxGeometry>
        </mxCell>
        <mxCell id="sn3jQVdKhQQqHqmtXbJt-48" value="ISBN" style="shape=partialRectangle;connectable=0;fillColor=none;top=0;left=0;bottom=0;right=0;align=left;spacingLeft=6;overflow=hidden;" vertex="1" parent="sn3jQVdKhQQqHqmtXbJt-46">
          <mxGeometry x="30" width="150" height="30" as="geometry">
            <mxRectangle width="150" height="30" as="alternateBounds" />
          </mxGeometry>
        </mxCell>
        <mxCell id="sn3jQVdKhQQqHqmtXbJt-49" value="" style="shape=partialRectangle;collapsible=0;dropTarget=0;pointerEvents=0;fillColor=none;top=0;left=0;bottom=0;right=0;points=[[0,0.5],[1,0.5]];portConstraint=eastwest;" vertex="1" parent="sn3jQVdKhQQqHqmtXbJt-30">
          <mxGeometry y="210" width="180" height="30" as="geometry" />
        </mxCell>
        <mxCell id="sn3jQVdKhQQqHqmtXbJt-50" value="" style="shape=partialRectangle;connectable=0;fillColor=none;top=0;left=0;bottom=0;right=0;editable=1;overflow=hidden;" vertex="1" parent="sn3jQVdKhQQqHqmtXbJt-49">
          <mxGeometry width="30" height="30" as="geometry">
            <mxRectangle width="30" height="30" as="alternateBounds" />
          </mxGeometry>
        </mxCell>
        <mxCell id="sn3jQVdKhQQqHqmtXbJt-51" value="Editura" style="shape=partialRectangle;connectable=0;fillColor=none;top=0;left=0;bottom=0;right=0;align=left;spacingLeft=6;overflow=hidden;" vertex="1" parent="sn3jQVdKhQQqHqmtXbJt-49">
          <mxGeometry x="30" width="150" height="30" as="geometry">
            <mxRectangle width="150" height="30" as="alternateBounds" />
          </mxGeometry>
        </mxCell>
        <mxCell id="sn3jQVdKhQQqHqmtXbJt-52" value="Autor" style="shape=table;startSize=30;container=1;collapsible=1;childLayout=tableLayout;fixedRows=1;rowLines=0;fontStyle=1;align=center;resizeLast=1;fillColor=#dae8fc;strokeColor=#6c8ebf;" vertex="1" parent="1">
          <mxGeometry x="-120" y="470" width="180" height="190" as="geometry" />
        </mxCell>
        <mxCell id="sn3jQVdKhQQqHqmtXbJt-53" value="" style="shape=partialRectangle;collapsible=0;dropTarget=0;pointerEvents=0;fillColor=none;top=0;left=0;bottom=1;right=0;points=[[0,0.5],[1,0.5]];portConstraint=eastwest;" vertex="1" parent="sn3jQVdKhQQqHqmtXbJt-52">
          <mxGeometry y="30" width="180" height="30" as="geometry" />
        </mxCell>
        <mxCell id="sn3jQVdKhQQqHqmtXbJt-54" value="PK" style="shape=partialRectangle;connectable=0;fillColor=none;top=0;left=0;bottom=0;right=0;fontStyle=1;overflow=hidden;" vertex="1" parent="sn3jQVdKhQQqHqmtXbJt-53">
          <mxGeometry width="30" height="30" as="geometry">
            <mxRectangle width="30" height="30" as="alternateBounds" />
          </mxGeometry>
        </mxCell>
        <mxCell id="sn3jQVdKhQQqHqmtXbJt-55" value="ID_Autor" style="shape=partialRectangle;connectable=0;fillColor=none;top=0;left=0;bottom=0;right=0;align=left;spacingLeft=6;fontStyle=5;overflow=hidden;" vertex="1" parent="sn3jQVdKhQQqHqmtXbJt-53">
          <mxGeometry x="30" width="150" height="30" as="geometry">
            <mxRectangle width="150" height="30" as="alternateBounds" />
          </mxGeometry>
        </mxCell>
        <mxCell id="sn3jQVdKhQQqHqmtXbJt-56" value="" style="shape=partialRectangle;collapsible=0;dropTarget=0;pointerEvents=0;fillColor=none;top=0;left=0;bottom=0;right=0;points=[[0,0.5],[1,0.5]];portConstraint=eastwest;" vertex="1" parent="sn3jQVdKhQQqHqmtXbJt-52">
          <mxGeometry y="60" width="180" height="30" as="geometry" />
        </mxCell>
        <mxCell id="sn3jQVdKhQQqHqmtXbJt-57" value="" style="shape=partialRectangle;connectable=0;fillColor=none;top=0;left=0;bottom=0;right=0;editable=1;overflow=hidden;" vertex="1" parent="sn3jQVdKhQQqHqmtXbJt-56">
          <mxGeometry width="30" height="30" as="geometry">
            <mxRectangle width="30" height="30" as="alternateBounds" />
          </mxGeometry>
        </mxCell>
        <mxCell id="sn3jQVdKhQQqHqmtXbJt-58" value="Nume" style="shape=partialRectangle;connectable=0;fillColor=none;top=0;left=0;bottom=0;right=0;align=left;spacingLeft=6;overflow=hidden;" vertex="1" parent="sn3jQVdKhQQqHqmtXbJt-56">
          <mxGeometry x="30" width="150" height="30" as="geometry">
            <mxRectangle width="150" height="30" as="alternateBounds" />
          </mxGeometry>
        </mxCell>
        <mxCell id="sn3jQVdKhQQqHqmtXbJt-59" value="" style="shape=partialRectangle;collapsible=0;dropTarget=0;pointerEvents=0;fillColor=none;top=0;left=0;bottom=0;right=0;points=[[0,0.5],[1,0.5]];portConstraint=eastwest;" vertex="1" parent="sn3jQVdKhQQqHqmtXbJt-52">
          <mxGeometry y="90" width="180" height="30" as="geometry" />
        </mxCell>
        <mxCell id="sn3jQVdKhQQqHqmtXbJt-60" value="" style="shape=partialRectangle;connectable=0;fillColor=none;top=0;left=0;bottom=0;right=0;editable=1;overflow=hidden;" vertex="1" parent="sn3jQVdKhQQqHqmtXbJt-59">
          <mxGeometry width="30" height="30" as="geometry">
            <mxRectangle width="30" height="30" as="alternateBounds" />
          </mxGeometry>
        </mxCell>
        <mxCell id="sn3jQVdKhQQqHqmtXbJt-61" value="Biografie" style="shape=partialRectangle;connectable=0;fillColor=none;top=0;left=0;bottom=0;right=0;align=left;spacingLeft=6;overflow=hidden;" vertex="1" parent="sn3jQVdKhQQqHqmtXbJt-59">
          <mxGeometry x="30" width="150" height="30" as="geometry">
            <mxRectangle width="150" height="30" as="alternateBounds" />
          </mxGeometry>
        </mxCell>
        <mxCell id="sn3jQVdKhQQqHqmtXbJt-62" value="" style="shape=partialRectangle;collapsible=0;dropTarget=0;pointerEvents=0;fillColor=none;top=0;left=0;bottom=0;right=0;points=[[0,0.5],[1,0.5]];portConstraint=eastwest;" vertex="1" parent="sn3jQVdKhQQqHqmtXbJt-52">
          <mxGeometry y="120" width="180" height="30" as="geometry" />
        </mxCell>
        <mxCell id="sn3jQVdKhQQqHqmtXbJt-63" value="" style="shape=partialRectangle;connectable=0;fillColor=none;top=0;left=0;bottom=0;right=0;editable=1;overflow=hidden;" vertex="1" parent="sn3jQVdKhQQqHqmtXbJt-62">
          <mxGeometry width="30" height="30" as="geometry">
            <mxRectangle width="30" height="30" as="alternateBounds" />
          </mxGeometry>
        </mxCell>
        <mxCell id="sn3jQVdKhQQqHqmtXbJt-64" value="Nr. Carti" style="shape=partialRectangle;connectable=0;fillColor=none;top=0;left=0;bottom=0;right=0;align=left;spacingLeft=6;overflow=hidden;" vertex="1" parent="sn3jQVdKhQQqHqmtXbJt-62">
          <mxGeometry x="30" width="150" height="30" as="geometry">
            <mxRectangle width="150" height="30" as="alternateBounds" />
          </mxGeometry>
        </mxCell>
        <mxCell id="sn3jQVdKhQQqHqmtXbJt-65" value="" style="shape=partialRectangle;collapsible=0;dropTarget=0;pointerEvents=0;fillColor=none;top=0;left=0;bottom=0;right=0;points=[[0,0.5],[1,0.5]];portConstraint=eastwest;" vertex="1" parent="sn3jQVdKhQQqHqmtXbJt-52">
          <mxGeometry y="150" width="180" height="30" as="geometry" />
        </mxCell>
        <mxCell id="sn3jQVdKhQQqHqmtXbJt-66" value="" style="shape=partialRectangle;connectable=0;fillColor=none;top=0;left=0;bottom=0;right=0;editable=1;overflow=hidden;" vertex="1" parent="sn3jQVdKhQQqHqmtXbJt-65">
          <mxGeometry width="30" height="30" as="geometry">
            <mxRectangle width="30" height="30" as="alternateBounds" />
          </mxGeometry>
        </mxCell>
        <mxCell id="sn3jQVdKhQQqHqmtXbJt-67" value="Adresa" style="shape=partialRectangle;connectable=0;fillColor=none;top=0;left=0;bottom=0;right=0;align=left;spacingLeft=6;overflow=hidden;" vertex="1" parent="sn3jQVdKhQQqHqmtXbJt-65">
          <mxGeometry x="30" width="150" height="30" as="geometry">
            <mxRectangle width="150" height="30" as="alternateBounds" />
          </mxGeometry>
        </mxCell>
        <mxCell id="sn3jQVdKhQQqHqmtXbJt-68" value="Scrie" style="swimlane;fontStyle=0;childLayout=stackLayout;horizontal=1;startSize=26;horizontalStack=0;resizeParent=1;resizeParentMax=0;resizeLast=0;collapsible=1;marginBottom=0;align=center;fontSize=14;fillColor=#dae8fc;strokeColor=#6c8ebf;" vertex="1" parent="1">
          <mxGeometry x="140" y="470" width="160" height="86" as="geometry" />
        </mxCell>
        <mxCell id="sn3jQVdKhQQqHqmtXbJt-69" value="ID_Autor" style="text;strokeColor=none;fillColor=none;spacingLeft=4;spacingRight=4;overflow=hidden;rotatable=0;points=[[0,0.5],[1,0.5]];portConstraint=eastwest;fontSize=12;" vertex="1" parent="sn3jQVdKhQQqHqmtXbJt-68">
          <mxGeometry y="26" width="160" height="30" as="geometry" />
        </mxCell>
        <mxCell id="sn3jQVdKhQQqHqmtXbJt-70" value="ID_Carte" style="text;strokeColor=none;fillColor=none;spacingLeft=4;spacingRight=4;overflow=hidden;rotatable=0;points=[[0,0.5],[1,0.5]];portConstraint=eastwest;fontSize=12;" vertex="1" parent="sn3jQVdKhQQqHqmtXbJt-68">
          <mxGeometry y="56" width="160" height="30" as="geometry" />
        </mxCell>
        <mxCell id="sn3jQVdKhQQqHqmtXbJt-71" style="edgeStyle=orthogonalEdgeStyle;rounded=0;orthogonalLoop=1;jettySize=auto;html=1;entryX=0.5;entryY=0;entryDx=0;entryDy=0;" edge="1" parent="1" source="sn3jQVdKhQQqHqmtXbJt-72" target="sn3jQVdKhQQqHqmtXbJt-3">
          <mxGeometry relative="1" as="geometry" />
        </mxCell>
        <mxCell id="sn3jQVdKhQQqHqmtXbJt-72" value="ID_Autor" style="ellipse;whiteSpace=wrap;html=1;align=center;fillColor=#d5e8d4;strokeColor=#82b366;" vertex="1" parent="1">
          <mxGeometry x="140" y="170" width="100" height="40" as="geometry" />
        </mxCell>
        <mxCell id="sn3jQVdKhQQqHqmtXbJt-73" style="edgeStyle=orthogonalEdgeStyle;rounded=0;orthogonalLoop=1;jettySize=auto;html=1;entryX=0.5;entryY=1;entryDx=0;entryDy=0;" edge="1" parent="1" source="sn3jQVdKhQQqHqmtXbJt-74" target="sn3jQVdKhQQqHqmtXbJt-3">
          <mxGeometry relative="1" as="geometry" />
        </mxCell>
        <mxCell id="sn3jQVdKhQQqHqmtXbJt-74" value="ID_Carte" style="ellipse;whiteSpace=wrap;html=1;align=center;fillColor=#d5e8d4;strokeColor=#82b366;" vertex="1" parent="1">
          <mxGeometry x="40" y="350" width="100" height="40" as="geometry" />
        </mxCell>
        <mxCell id="sn3jQVdKhQQqHqmtXbJt-75" value="" style="edgeStyle=entityRelationEdgeStyle;fontSize=12;html=1;endArrow=ERoneToMany;entryX=0;entryY=0.5;entryDx=0;entryDy=0;exitX=1;exitY=0.5;exitDx=0;exitDy=0;" edge="1" parent="1" source="sn3jQVdKhQQqHqmtXbJt-53" target="sn3jQVdKhQQqHqmtXbJt-69">
          <mxGeometry width="100" height="100" relative="1" as="geometry">
            <mxPoint x="90" y="610" as="sourcePoint" />
            <mxPoint x="200" y="610" as="targetPoint" />
          </mxGeometry>
        </mxCell>
        <mxCell id="sn3jQVdKhQQqHqmtXbJt-76" value="" style="edgeStyle=entityRelationEdgeStyle;fontSize=12;html=1;endArrow=ERoneToMany;entryX=1;entryY=0.3;entryDx=0;entryDy=0;exitX=0;exitY=0.5;exitDx=0;exitDy=0;entryPerimeter=0;" edge="1" parent="1" source="sn3jQVdKhQQqHqmtXbJt-31" target="sn3jQVdKhQQqHqmtXbJt-70">
          <mxGeometry width="100" height="100" relative="1" as="geometry">
            <mxPoint x="260" y="610" as="sourcePoint" />
            <mxPoint x="370" y="610" as="targetPoint" />
          </mxGeometry>
        </mxCell>
      </root>
    </mxGraphModel>
  </diagram>
  <diagram id="KFoMfSekSWV1qCaV79Ok" name="EX I (C)">
    <mxGraphModel dx="711" dy="389" grid="1" gridSize="10" guides="1" tooltips="1" connect="1" arrows="1" fold="1" page="1" pageScale="1" pageWidth="850" pageHeight="1100" math="0" shadow="0">
      <root>
        <mxCell id="0" />
        <mxCell id="1" parent="0" />
        <mxCell id="VfGpLDJga5cBZec-XevN-1" value="Echipa" style="whiteSpace=wrap;html=1;align=center;fillColor=#dae8fc;strokeColor=#6c8ebf;" vertex="1" parent="1">
          <mxGeometry x="140" y="160" width="100" height="40" as="geometry" />
        </mxCell>
        <mxCell id="VfGpLDJga5cBZec-XevN-2" value="Jucatori" style="whiteSpace=wrap;html=1;align=center;fillColor=#dae8fc;strokeColor=#6c8ebf;" vertex="1" parent="1">
          <mxGeometry x="590" y="160" width="100" height="40" as="geometry" />
        </mxCell>
        <mxCell id="VfGpLDJga5cBZec-XevN-3" value="Juca" style="shape=rhombus;perimeter=rhombusPerimeter;whiteSpace=wrap;html=1;align=center;fillColor=#dae8fc;strokeColor=#6c8ebf;" vertex="1" parent="1">
          <mxGeometry x="360" y="150" width="120" height="60" as="geometry" />
        </mxCell>
        <mxCell id="VfGpLDJga5cBZec-XevN-4" value="Echipa" style="shape=table;startSize=30;container=1;collapsible=1;childLayout=tableLayout;fixedRows=1;rowLines=0;fontStyle=1;align=center;resizeLast=1;fillColor=#dae8fc;strokeColor=#6c8ebf;" vertex="1" parent="1">
          <mxGeometry x="80" y="440" width="180" height="190" as="geometry" />
        </mxCell>
        <mxCell id="VfGpLDJga5cBZec-XevN-5" value="" style="shape=partialRectangle;collapsible=0;dropTarget=0;pointerEvents=0;fillColor=none;top=0;left=0;bottom=1;right=0;points=[[0,0.5],[1,0.5]];portConstraint=eastwest;" vertex="1" parent="VfGpLDJga5cBZec-XevN-4">
          <mxGeometry y="30" width="180" height="30" as="geometry" />
        </mxCell>
        <mxCell id="VfGpLDJga5cBZec-XevN-6" value="PK" style="shape=partialRectangle;connectable=0;fillColor=none;top=0;left=0;bottom=0;right=0;fontStyle=1;overflow=hidden;" vertex="1" parent="VfGpLDJga5cBZec-XevN-5">
          <mxGeometry width="30" height="30" as="geometry">
            <mxRectangle width="30" height="30" as="alternateBounds" />
          </mxGeometry>
        </mxCell>
        <mxCell id="VfGpLDJga5cBZec-XevN-7" value="ID_Echipa" style="shape=partialRectangle;connectable=0;fillColor=none;top=0;left=0;bottom=0;right=0;align=left;spacingLeft=6;fontStyle=5;overflow=hidden;" vertex="1" parent="VfGpLDJga5cBZec-XevN-5">
          <mxGeometry x="30" width="150" height="30" as="geometry">
            <mxRectangle width="150" height="30" as="alternateBounds" />
          </mxGeometry>
        </mxCell>
        <mxCell id="VfGpLDJga5cBZec-XevN-8" value="" style="shape=partialRectangle;collapsible=0;dropTarget=0;pointerEvents=0;fillColor=none;top=0;left=0;bottom=0;right=0;points=[[0,0.5],[1,0.5]];portConstraint=eastwest;" vertex="1" parent="VfGpLDJga5cBZec-XevN-4">
          <mxGeometry y="60" width="180" height="30" as="geometry" />
        </mxCell>
        <mxCell id="VfGpLDJga5cBZec-XevN-9" value="" style="shape=partialRectangle;connectable=0;fillColor=none;top=0;left=0;bottom=0;right=0;editable=1;overflow=hidden;" vertex="1" parent="VfGpLDJga5cBZec-XevN-8">
          <mxGeometry width="30" height="30" as="geometry">
            <mxRectangle width="30" height="30" as="alternateBounds" />
          </mxGeometry>
        </mxCell>
        <mxCell id="VfGpLDJga5cBZec-XevN-10" value="Nume" style="shape=partialRectangle;connectable=0;fillColor=none;top=0;left=0;bottom=0;right=0;align=left;spacingLeft=6;overflow=hidden;" vertex="1" parent="VfGpLDJga5cBZec-XevN-8">
          <mxGeometry x="30" width="150" height="30" as="geometry">
            <mxRectangle width="150" height="30" as="alternateBounds" />
          </mxGeometry>
        </mxCell>
        <mxCell id="VfGpLDJga5cBZec-XevN-11" value="" style="shape=partialRectangle;collapsible=0;dropTarget=0;pointerEvents=0;fillColor=none;top=0;left=0;bottom=0;right=0;points=[[0,0.5],[1,0.5]];portConstraint=eastwest;" vertex="1" parent="VfGpLDJga5cBZec-XevN-4">
          <mxGeometry y="90" width="180" height="30" as="geometry" />
        </mxCell>
        <mxCell id="VfGpLDJga5cBZec-XevN-12" value="" style="shape=partialRectangle;connectable=0;fillColor=none;top=0;left=0;bottom=0;right=0;editable=1;overflow=hidden;" vertex="1" parent="VfGpLDJga5cBZec-XevN-11">
          <mxGeometry width="30" height="30" as="geometry">
            <mxRectangle width="30" height="30" as="alternateBounds" />
          </mxGeometry>
        </mxCell>
        <mxCell id="VfGpLDJga5cBZec-XevN-13" value="Antrenor" style="shape=partialRectangle;connectable=0;fillColor=none;top=0;left=0;bottom=0;right=0;align=left;spacingLeft=6;overflow=hidden;" vertex="1" parent="VfGpLDJga5cBZec-XevN-11">
          <mxGeometry x="30" width="150" height="30" as="geometry">
            <mxRectangle width="150" height="30" as="alternateBounds" />
          </mxGeometry>
        </mxCell>
        <mxCell id="VfGpLDJga5cBZec-XevN-14" value="" style="shape=partialRectangle;collapsible=0;dropTarget=0;pointerEvents=0;fillColor=none;top=0;left=0;bottom=0;right=0;points=[[0,0.5],[1,0.5]];portConstraint=eastwest;" vertex="1" parent="VfGpLDJga5cBZec-XevN-4">
          <mxGeometry y="120" width="180" height="30" as="geometry" />
        </mxCell>
        <mxCell id="VfGpLDJga5cBZec-XevN-15" value="" style="shape=partialRectangle;connectable=0;fillColor=none;top=0;left=0;bottom=0;right=0;editable=1;overflow=hidden;" vertex="1" parent="VfGpLDJga5cBZec-XevN-14">
          <mxGeometry width="30" height="30" as="geometry">
            <mxRectangle width="30" height="30" as="alternateBounds" />
          </mxGeometry>
        </mxCell>
        <mxCell id="VfGpLDJga5cBZec-XevN-16" value="Mascota" style="shape=partialRectangle;connectable=0;fillColor=none;top=0;left=0;bottom=0;right=0;align=left;spacingLeft=6;overflow=hidden;" vertex="1" parent="VfGpLDJga5cBZec-XevN-14">
          <mxGeometry x="30" width="150" height="30" as="geometry">
            <mxRectangle width="150" height="30" as="alternateBounds" />
          </mxGeometry>
        </mxCell>
        <mxCell id="VfGpLDJga5cBZec-XevN-17" value="" style="shape=partialRectangle;collapsible=0;dropTarget=0;pointerEvents=0;fillColor=none;top=0;left=0;bottom=0;right=0;points=[[0,0.5],[1,0.5]];portConstraint=eastwest;" vertex="1" parent="VfGpLDJga5cBZec-XevN-4">
          <mxGeometry y="150" width="180" height="30" as="geometry" />
        </mxCell>
        <mxCell id="VfGpLDJga5cBZec-XevN-18" value="" style="shape=partialRectangle;connectable=0;fillColor=none;top=0;left=0;bottom=0;right=0;editable=1;overflow=hidden;" vertex="1" parent="VfGpLDJga5cBZec-XevN-17">
          <mxGeometry width="30" height="30" as="geometry">
            <mxRectangle width="30" height="30" as="alternateBounds" />
          </mxGeometry>
        </mxCell>
        <mxCell id="VfGpLDJga5cBZec-XevN-19" value="Transport" style="shape=partialRectangle;connectable=0;fillColor=none;top=0;left=0;bottom=0;right=0;align=left;spacingLeft=6;overflow=hidden;" vertex="1" parent="VfGpLDJga5cBZec-XevN-17">
          <mxGeometry x="30" width="150" height="30" as="geometry">
            <mxRectangle width="150" height="30" as="alternateBounds" />
          </mxGeometry>
        </mxCell>
        <mxCell id="VfGpLDJga5cBZec-XevN-20" value="Juca" style="swimlane;fontStyle=0;childLayout=stackLayout;horizontal=1;startSize=26;horizontalStack=0;resizeParent=1;resizeParentMax=0;resizeLast=0;collapsible=1;marginBottom=0;align=center;fontSize=14;fillColor=#dae8fc;strokeColor=#6c8ebf;" vertex="1" parent="1">
          <mxGeometry x="340" y="440" width="160" height="86" as="geometry" />
        </mxCell>
        <mxCell id="VfGpLDJga5cBZec-XevN-21" value="ID_Echipa" style="text;strokeColor=none;fillColor=none;spacingLeft=4;spacingRight=4;overflow=hidden;rotatable=0;points=[[0,0.5],[1,0.5]];portConstraint=eastwest;fontSize=12;" vertex="1" parent="VfGpLDJga5cBZec-XevN-20">
          <mxGeometry y="26" width="160" height="30" as="geometry" />
        </mxCell>
        <mxCell id="VfGpLDJga5cBZec-XevN-22" value="ID_Jucatori" style="text;strokeColor=none;fillColor=none;spacingLeft=4;spacingRight=4;overflow=hidden;rotatable=0;points=[[0,0.5],[1,0.5]];portConstraint=eastwest;fontSize=12;" vertex="1" parent="VfGpLDJga5cBZec-XevN-20">
          <mxGeometry y="56" width="160" height="30" as="geometry" />
        </mxCell>
        <mxCell id="VfGpLDJga5cBZec-XevN-23" value="Jucatori" style="shape=table;startSize=30;container=1;collapsible=1;childLayout=tableLayout;fixedRows=1;rowLines=0;fontStyle=1;align=center;resizeLast=1;fillColor=#dae8fc;strokeColor=#6c8ebf;" vertex="1" parent="1">
          <mxGeometry x="580" y="420" width="180" height="320" as="geometry">
            <mxRectangle x="580" y="420" width="80" height="30" as="alternateBounds" />
          </mxGeometry>
        </mxCell>
        <mxCell id="VfGpLDJga5cBZec-XevN-24" value="" style="shape=partialRectangle;collapsible=0;dropTarget=0;pointerEvents=0;fillColor=none;top=0;left=0;bottom=1;right=0;points=[[0,0.5],[1,0.5]];portConstraint=eastwest;" vertex="1" parent="VfGpLDJga5cBZec-XevN-23">
          <mxGeometry y="30" width="180" height="30" as="geometry" />
        </mxCell>
        <mxCell id="VfGpLDJga5cBZec-XevN-25" value="PK" style="shape=partialRectangle;connectable=0;fillColor=none;top=0;left=0;bottom=0;right=0;fontStyle=1;overflow=hidden;" vertex="1" parent="VfGpLDJga5cBZec-XevN-24">
          <mxGeometry width="30" height="30" as="geometry">
            <mxRectangle width="30" height="30" as="alternateBounds" />
          </mxGeometry>
        </mxCell>
        <mxCell id="VfGpLDJga5cBZec-XevN-26" value="ID_Jucatori" style="shape=partialRectangle;connectable=0;fillColor=none;top=0;left=0;bottom=0;right=0;align=left;spacingLeft=6;fontStyle=5;overflow=hidden;" vertex="1" parent="VfGpLDJga5cBZec-XevN-24">
          <mxGeometry x="30" width="150" height="30" as="geometry">
            <mxRectangle width="150" height="30" as="alternateBounds" />
          </mxGeometry>
        </mxCell>
        <mxCell id="VfGpLDJga5cBZec-XevN-27" value="" style="shape=partialRectangle;collapsible=0;dropTarget=0;pointerEvents=0;fillColor=none;top=0;left=0;bottom=0;right=0;points=[[0,0.5],[1,0.5]];portConstraint=eastwest;" vertex="1" parent="VfGpLDJga5cBZec-XevN-23">
          <mxGeometry y="60" width="180" height="30" as="geometry" />
        </mxCell>
        <mxCell id="VfGpLDJga5cBZec-XevN-28" value="" style="shape=partialRectangle;connectable=0;fillColor=none;top=0;left=0;bottom=0;right=0;editable=1;overflow=hidden;" vertex="1" parent="VfGpLDJga5cBZec-XevN-27">
          <mxGeometry width="30" height="30" as="geometry">
            <mxRectangle width="30" height="30" as="alternateBounds" />
          </mxGeometry>
        </mxCell>
        <mxCell id="VfGpLDJga5cBZec-XevN-29" value="Nume" style="shape=partialRectangle;connectable=0;fillColor=none;top=0;left=0;bottom=0;right=0;align=left;spacingLeft=6;overflow=hidden;" vertex="1" parent="VfGpLDJga5cBZec-XevN-27">
          <mxGeometry x="30" width="150" height="30" as="geometry">
            <mxRectangle width="150" height="30" as="alternateBounds" />
          </mxGeometry>
        </mxCell>
        <mxCell id="VfGpLDJga5cBZec-XevN-30" value="" style="shape=partialRectangle;collapsible=0;dropTarget=0;pointerEvents=0;fillColor=none;top=0;left=0;bottom=0;right=0;points=[[0,0.5],[1,0.5]];portConstraint=eastwest;" vertex="1" parent="VfGpLDJga5cBZec-XevN-23">
          <mxGeometry y="90" width="180" height="30" as="geometry" />
        </mxCell>
        <mxCell id="VfGpLDJga5cBZec-XevN-31" value="" style="shape=partialRectangle;connectable=0;fillColor=none;top=0;left=0;bottom=0;right=0;editable=1;overflow=hidden;" vertex="1" parent="VfGpLDJga5cBZec-XevN-30">
          <mxGeometry width="30" height="30" as="geometry">
            <mxRectangle width="30" height="30" as="alternateBounds" />
          </mxGeometry>
        </mxCell>
        <mxCell id="VfGpLDJga5cBZec-XevN-32" value="Pozitie" style="shape=partialRectangle;connectable=0;fillColor=none;top=0;left=0;bottom=0;right=0;align=left;spacingLeft=6;overflow=hidden;" vertex="1" parent="VfGpLDJga5cBZec-XevN-30">
          <mxGeometry x="30" width="150" height="30" as="geometry">
            <mxRectangle width="150" height="30" as="alternateBounds" />
          </mxGeometry>
        </mxCell>
        <mxCell id="VfGpLDJga5cBZec-XevN-33" value="" style="shape=partialRectangle;collapsible=0;dropTarget=0;pointerEvents=0;fillColor=none;top=0;left=0;bottom=0;right=0;points=[[0,0.5],[1,0.5]];portConstraint=eastwest;" vertex="1" parent="VfGpLDJga5cBZec-XevN-23">
          <mxGeometry y="120" width="180" height="30" as="geometry" />
        </mxCell>
        <mxCell id="VfGpLDJga5cBZec-XevN-34" value="" style="shape=partialRectangle;connectable=0;fillColor=none;top=0;left=0;bottom=0;right=0;editable=1;overflow=hidden;" vertex="1" parent="VfGpLDJga5cBZec-XevN-33">
          <mxGeometry width="30" height="30" as="geometry">
            <mxRectangle width="30" height="30" as="alternateBounds" />
          </mxGeometry>
        </mxCell>
        <mxCell id="VfGpLDJga5cBZec-XevN-35" value="Numar" style="shape=partialRectangle;connectable=0;fillColor=none;top=0;left=0;bottom=0;right=0;align=left;spacingLeft=6;overflow=hidden;" vertex="1" parent="VfGpLDJga5cBZec-XevN-33">
          <mxGeometry x="30" width="150" height="30" as="geometry">
            <mxRectangle width="150" height="30" as="alternateBounds" />
          </mxGeometry>
        </mxCell>
        <mxCell id="VfGpLDJga5cBZec-XevN-36" value="" style="shape=partialRectangle;collapsible=0;dropTarget=0;pointerEvents=0;fillColor=none;top=0;left=0;bottom=0;right=0;points=[[0,0.5],[1,0.5]];portConstraint=eastwest;" vertex="1" parent="VfGpLDJga5cBZec-XevN-23">
          <mxGeometry y="150" width="180" height="30" as="geometry" />
        </mxCell>
        <mxCell id="VfGpLDJga5cBZec-XevN-37" value="" style="shape=partialRectangle;connectable=0;fillColor=none;top=0;left=0;bottom=0;right=0;editable=1;overflow=hidden;" vertex="1" parent="VfGpLDJga5cBZec-XevN-36">
          <mxGeometry width="30" height="30" as="geometry">
            <mxRectangle width="30" height="30" as="alternateBounds" />
          </mxGeometry>
        </mxCell>
        <mxCell id="VfGpLDJga5cBZec-XevN-38" value="Uniforma" style="shape=partialRectangle;connectable=0;fillColor=none;top=0;left=0;bottom=0;right=0;align=left;spacingLeft=6;overflow=hidden;" vertex="1" parent="VfGpLDJga5cBZec-XevN-36">
          <mxGeometry x="30" width="150" height="30" as="geometry">
            <mxRectangle width="150" height="30" as="alternateBounds" />
          </mxGeometry>
        </mxCell>
        <mxCell id="VfGpLDJga5cBZec-XevN-39" value="" style="shape=partialRectangle;collapsible=0;dropTarget=0;pointerEvents=0;fillColor=none;top=0;left=0;bottom=0;right=0;points=[[0,0.5],[1,0.5]];portConstraint=eastwest;" vertex="1" parent="VfGpLDJga5cBZec-XevN-23">
          <mxGeometry y="180" width="180" height="30" as="geometry" />
        </mxCell>
        <mxCell id="VfGpLDJga5cBZec-XevN-40" value="" style="shape=partialRectangle;connectable=0;fillColor=none;top=0;left=0;bottom=0;right=0;editable=1;overflow=hidden;" vertex="1" parent="VfGpLDJga5cBZec-XevN-39">
          <mxGeometry width="30" height="30" as="geometry">
            <mxRectangle width="30" height="30" as="alternateBounds" />
          </mxGeometry>
        </mxCell>
        <mxCell id="VfGpLDJga5cBZec-XevN-41" value="Adresa" style="shape=partialRectangle;connectable=0;fillColor=none;top=0;left=0;bottom=0;right=0;align=left;spacingLeft=6;overflow=hidden;" vertex="1" parent="VfGpLDJga5cBZec-XevN-39">
          <mxGeometry x="30" width="150" height="30" as="geometry">
            <mxRectangle width="150" height="30" as="alternateBounds" />
          </mxGeometry>
        </mxCell>
        <mxCell id="VfGpLDJga5cBZec-XevN-42" style="edgeStyle=orthogonalEdgeStyle;rounded=0;orthogonalLoop=1;jettySize=auto;html=1;entryX=0.25;entryY=0;entryDx=0;entryDy=0;" edge="1" parent="1" source="VfGpLDJga5cBZec-XevN-43" target="VfGpLDJga5cBZec-XevN-1">
          <mxGeometry relative="1" as="geometry" />
        </mxCell>
        <mxCell id="VfGpLDJga5cBZec-XevN-43" value="ID_Echipa" style="ellipse;whiteSpace=wrap;html=1;align=center;fillColor=#ffe6cc;strokeColor=#d79b00;" vertex="1" parent="1">
          <mxGeometry x="50" y="90" width="100" height="40" as="geometry" />
        </mxCell>
        <mxCell id="VfGpLDJga5cBZec-XevN-44" style="edgeStyle=orthogonalEdgeStyle;rounded=0;orthogonalLoop=1;jettySize=auto;html=1;entryX=0.18;entryY=0.05;entryDx=0;entryDy=0;entryPerimeter=0;" edge="1" parent="1" source="VfGpLDJga5cBZec-XevN-45" target="VfGpLDJga5cBZec-XevN-2">
          <mxGeometry relative="1" as="geometry" />
        </mxCell>
        <mxCell id="VfGpLDJga5cBZec-XevN-45" value="ID_Jucatori" style="ellipse;whiteSpace=wrap;html=1;align=center;fillColor=#ffe6cc;strokeColor=#d79b00;" vertex="1" parent="1">
          <mxGeometry x="520" y="80" width="100" height="40" as="geometry" />
        </mxCell>
        <mxCell id="VfGpLDJga5cBZec-XevN-46" style="edgeStyle=orthogonalEdgeStyle;rounded=0;orthogonalLoop=1;jettySize=auto;html=1;entryX=0.75;entryY=0;entryDx=0;entryDy=0;" edge="1" parent="1" source="VfGpLDJga5cBZec-XevN-47" target="VfGpLDJga5cBZec-XevN-1">
          <mxGeometry relative="1" as="geometry" />
        </mxCell>
        <mxCell id="VfGpLDJga5cBZec-XevN-47" value="Nume" style="ellipse;whiteSpace=wrap;html=1;align=center;" vertex="1" parent="1">
          <mxGeometry x="160" y="80" width="100" height="40" as="geometry" />
        </mxCell>
        <mxCell id="VfGpLDJga5cBZec-XevN-48" style="edgeStyle=orthogonalEdgeStyle;rounded=0;orthogonalLoop=1;jettySize=auto;html=1;entryX=0.75;entryY=0;entryDx=0;entryDy=0;" edge="1" parent="1" source="VfGpLDJga5cBZec-XevN-49" target="VfGpLDJga5cBZec-XevN-2">
          <mxGeometry relative="1" as="geometry" />
        </mxCell>
        <mxCell id="VfGpLDJga5cBZec-XevN-49" value="Nume" style="ellipse;whiteSpace=wrap;html=1;align=center;" vertex="1" parent="1">
          <mxGeometry x="620" y="70" width="100" height="40" as="geometry" />
        </mxCell>
        <mxCell id="VfGpLDJga5cBZec-XevN-50" style="edgeStyle=orthogonalEdgeStyle;rounded=0;orthogonalLoop=1;jettySize=auto;html=1;entryX=0.25;entryY=1;entryDx=0;entryDy=0;" edge="1" parent="1" source="VfGpLDJga5cBZec-XevN-51" target="VfGpLDJga5cBZec-XevN-2">
          <mxGeometry relative="1" as="geometry" />
        </mxCell>
        <mxCell id="VfGpLDJga5cBZec-XevN-51" value="Adresa" style="ellipse;shape=doubleEllipse;margin=3;whiteSpace=wrap;html=1;align=center;" vertex="1" parent="1">
          <mxGeometry x="470" y="230" width="100" height="40" as="geometry" />
        </mxCell>
        <mxCell id="VfGpLDJga5cBZec-XevN-52" style="edgeStyle=orthogonalEdgeStyle;rounded=0;orthogonalLoop=1;jettySize=auto;html=1;entryX=0.25;entryY=1;entryDx=0;entryDy=0;" edge="1" parent="1" source="VfGpLDJga5cBZec-XevN-53" target="VfGpLDJga5cBZec-XevN-1">
          <mxGeometry relative="1" as="geometry" />
        </mxCell>
        <mxCell id="VfGpLDJga5cBZec-XevN-53" value="Mascota" style="ellipse;whiteSpace=wrap;html=1;align=center;" vertex="1" parent="1">
          <mxGeometry y="220" width="100" height="40" as="geometry" />
        </mxCell>
        <mxCell id="VfGpLDJga5cBZec-XevN-54" style="edgeStyle=orthogonalEdgeStyle;rounded=0;orthogonalLoop=1;jettySize=auto;html=1;entryX=0.75;entryY=1;entryDx=0;entryDy=0;" edge="1" parent="1" source="VfGpLDJga5cBZec-XevN-55" target="VfGpLDJga5cBZec-XevN-1">
          <mxGeometry relative="1" as="geometry" />
        </mxCell>
        <mxCell id="VfGpLDJga5cBZec-XevN-55" value="Antrenor" style="ellipse;whiteSpace=wrap;html=1;align=center;" vertex="1" parent="1">
          <mxGeometry x="170" y="280" width="100" height="40" as="geometry" />
        </mxCell>
        <mxCell id="VfGpLDJga5cBZec-XevN-56" style="edgeStyle=orthogonalEdgeStyle;rounded=0;orthogonalLoop=1;jettySize=auto;html=1;entryX=0;entryY=0.5;entryDx=0;entryDy=0;" edge="1" parent="1" source="VfGpLDJga5cBZec-XevN-57" target="VfGpLDJga5cBZec-XevN-1">
          <mxGeometry relative="1" as="geometry" />
        </mxCell>
        <mxCell id="VfGpLDJga5cBZec-XevN-57" value="Trasnport" style="ellipse;whiteSpace=wrap;html=1;align=center;" vertex="1" parent="1">
          <mxGeometry x="10" y="160" width="100" height="40" as="geometry" />
        </mxCell>
        <mxCell id="VfGpLDJga5cBZec-XevN-58" style="edgeStyle=orthogonalEdgeStyle;rounded=0;orthogonalLoop=1;jettySize=auto;html=1;entryX=1;entryY=0.25;entryDx=0;entryDy=0;" edge="1" parent="1" source="VfGpLDJga5cBZec-XevN-59" target="VfGpLDJga5cBZec-XevN-2">
          <mxGeometry relative="1" as="geometry">
            <Array as="points">
              <mxPoint x="720" y="100" />
              <mxPoint x="720" y="170" />
            </Array>
          </mxGeometry>
        </mxCell>
        <mxCell id="VfGpLDJga5cBZec-XevN-59" value="Pozitie" style="ellipse;whiteSpace=wrap;html=1;align=center;" vertex="1" parent="1">
          <mxGeometry x="730" y="80" width="100" height="40" as="geometry" />
        </mxCell>
        <mxCell id="VfGpLDJga5cBZec-XevN-60" style="edgeStyle=orthogonalEdgeStyle;rounded=0;orthogonalLoop=1;jettySize=auto;html=1;entryX=1;entryY=0.75;entryDx=0;entryDy=0;" edge="1" parent="1" source="VfGpLDJga5cBZec-XevN-61" target="VfGpLDJga5cBZec-XevN-2">
          <mxGeometry relative="1" as="geometry" />
        </mxCell>
        <mxCell id="VfGpLDJga5cBZec-XevN-61" value="Numar" style="ellipse;whiteSpace=wrap;html=1;align=center;" vertex="1" parent="1">
          <mxGeometry x="727" y="170" width="100" height="40" as="geometry" />
        </mxCell>
        <mxCell id="VfGpLDJga5cBZec-XevN-62" style="edgeStyle=orthogonalEdgeStyle;rounded=0;orthogonalLoop=1;jettySize=auto;html=1;entryX=0.5;entryY=1;entryDx=0;entryDy=0;" edge="1" parent="1" source="VfGpLDJga5cBZec-XevN-63" target="VfGpLDJga5cBZec-XevN-2">
          <mxGeometry relative="1" as="geometry">
            <Array as="points">
              <mxPoint x="640" y="310" />
            </Array>
          </mxGeometry>
        </mxCell>
        <mxCell id="VfGpLDJga5cBZec-XevN-63" value="Uniforma" style="ellipse;whiteSpace=wrap;html=1;align=center;" vertex="1" parent="1">
          <mxGeometry x="500" y="290" width="100" height="40" as="geometry" />
        </mxCell>
        <mxCell id="VfGpLDJga5cBZec-XevN-64" style="edgeStyle=orthogonalEdgeStyle;rounded=0;orthogonalLoop=1;jettySize=auto;html=1;entryX=0.5;entryY=0;entryDx=0;entryDy=0;" edge="1" parent="1" source="VfGpLDJga5cBZec-XevN-65" target="VfGpLDJga5cBZec-XevN-3">
          <mxGeometry relative="1" as="geometry" />
        </mxCell>
        <mxCell id="VfGpLDJga5cBZec-XevN-65" value="ID_Echipa" style="ellipse;whiteSpace=wrap;html=1;align=center;fillColor=#d5e8d4;strokeColor=#82b366;" vertex="1" parent="1">
          <mxGeometry x="370" y="60" width="100" height="40" as="geometry" />
        </mxCell>
        <mxCell id="VfGpLDJga5cBZec-XevN-66" style="edgeStyle=orthogonalEdgeStyle;rounded=0;orthogonalLoop=1;jettySize=auto;html=1;entryX=0.5;entryY=1;entryDx=0;entryDy=0;" edge="1" parent="1" source="VfGpLDJga5cBZec-XevN-67" target="VfGpLDJga5cBZec-XevN-3">
          <mxGeometry relative="1" as="geometry" />
        </mxCell>
        <mxCell id="VfGpLDJga5cBZec-XevN-67" value="ID_Jucatori" style="ellipse;whiteSpace=wrap;html=1;align=center;fillColor=#d5e8d4;strokeColor=#82b366;" vertex="1" parent="1">
          <mxGeometry x="370" y="260" width="100" height="40" as="geometry" />
        </mxCell>
        <mxCell id="VfGpLDJga5cBZec-XevN-68" value="" style="edgeStyle=entityRelationEdgeStyle;fontSize=12;html=1;endArrow=ERoneToMany;entryX=0;entryY=0.5;entryDx=0;entryDy=0;exitX=1;exitY=0.5;exitDx=0;exitDy=0;" edge="1" parent="1" source="VfGpLDJga5cBZec-XevN-1" target="VfGpLDJga5cBZec-XevN-3">
          <mxGeometry width="100" height="100" relative="1" as="geometry">
            <mxPoint x="260" y="310" as="sourcePoint" />
            <mxPoint x="360" y="210" as="targetPoint" />
          </mxGeometry>
        </mxCell>
        <mxCell id="VfGpLDJga5cBZec-XevN-69" value="" style="edgeStyle=entityRelationEdgeStyle;fontSize=12;html=1;endArrow=ERmandOne;startArrow=ERmandOne;entryX=0;entryY=0.5;entryDx=0;entryDy=0;exitX=1;exitY=0.5;exitDx=0;exitDy=0;" edge="1" parent="1" source="VfGpLDJga5cBZec-XevN-3" target="VfGpLDJga5cBZec-XevN-2">
          <mxGeometry width="100" height="100" relative="1" as="geometry">
            <mxPoint x="470" y="280" as="sourcePoint" />
            <mxPoint x="570" y="180" as="targetPoint" />
          </mxGeometry>
        </mxCell>
        <mxCell id="VfGpLDJga5cBZec-XevN-70" value="" style="edgeStyle=entityRelationEdgeStyle;fontSize=12;html=1;endArrow=ERoneToMany;entryX=-0.031;entryY=0.267;entryDx=0;entryDy=0;exitX=1;exitY=0.5;exitDx=0;exitDy=0;entryPerimeter=0;" edge="1" parent="1" source="VfGpLDJga5cBZec-XevN-5" target="VfGpLDJga5cBZec-XevN-21">
          <mxGeometry width="100" height="100" relative="1" as="geometry">
            <mxPoint x="240" y="390" as="sourcePoint" />
            <mxPoint x="360" y="390" as="targetPoint" />
          </mxGeometry>
        </mxCell>
        <mxCell id="VfGpLDJga5cBZec-XevN-71" value="" style="edgeStyle=entityRelationEdgeStyle;fontSize=12;html=1;endArrow=ERmandOne;startArrow=ERmandOne;entryX=0;entryY=0.5;entryDx=0;entryDy=0;" edge="1" parent="1" source="VfGpLDJga5cBZec-XevN-22" target="VfGpLDJga5cBZec-XevN-24">
          <mxGeometry width="100" height="100" relative="1" as="geometry">
            <mxPoint x="470" y="390" as="sourcePoint" />
            <mxPoint x="580" y="390" as="targetPoint" />
          </mxGeometry>
        </mxCell>
        <mxCell id="VfGpLDJga5cBZec-XevN-72" value="Pretul de transfer" style="ellipse;whiteSpace=wrap;html=1;" vertex="1" parent="1">
          <mxGeometry x="730" y="215" width="97" height="50" as="geometry" />
        </mxCell>
        <mxCell id="VfGpLDJga5cBZec-XevN-73" value="" style="endArrow=classic;html=1;exitX=0;exitY=0.5;exitDx=0;exitDy=0;entryX=0.93;entryY=1;entryDx=0;entryDy=0;entryPerimeter=0;edgeStyle=orthogonalEdgeStyle;" edge="1" parent="1" source="VfGpLDJga5cBZec-XevN-72" target="VfGpLDJga5cBZec-XevN-2">
          <mxGeometry width="50" height="50" relative="1" as="geometry">
            <mxPoint x="640" y="250" as="sourcePoint" />
            <mxPoint x="690" y="200" as="targetPoint" />
            <Array as="points">
              <mxPoint x="730" y="220" />
              <mxPoint x="683" y="220" />
            </Array>
          </mxGeometry>
        </mxCell>
        <mxCell id="VfGpLDJga5cBZec-XevN-74" value="Statutul jucatorului in echipa" style="ellipse;whiteSpace=wrap;html=1;" vertex="1" parent="1">
          <mxGeometry x="510" y="350" width="100" height="50" as="geometry" />
        </mxCell>
        <mxCell id="VfGpLDJga5cBZec-XevN-75" value="" style="endArrow=classic;html=1;entryX=0.75;entryY=1;entryDx=0;entryDy=0;exitX=0.92;exitY=0.18;exitDx=0;exitDy=0;exitPerimeter=0;edgeStyle=orthogonalEdgeStyle;" edge="1" parent="1" source="VfGpLDJga5cBZec-XevN-74" target="VfGpLDJga5cBZec-XevN-2">
          <mxGeometry width="50" height="50" relative="1" as="geometry">
            <mxPoint x="390" y="280" as="sourcePoint" />
            <mxPoint x="440" y="230" as="targetPoint" />
            <Array as="points">
              <mxPoint x="602" y="330" />
              <mxPoint x="665" y="330" />
            </Array>
          </mxGeometry>
        </mxCell>
        <mxCell id="VfGpLDJga5cBZec-XevN-76" style="edgeStyle=orthogonalEdgeStyle;rounded=0;orthogonalLoop=1;jettySize=auto;html=1;exitX=0.75;exitY=1;exitDx=0;exitDy=0;" edge="1" parent="1" source="VfGpLDJga5cBZec-XevN-2" target="VfGpLDJga5cBZec-XevN-2">
          <mxGeometry relative="1" as="geometry">
            <Array as="points">
              <mxPoint x="650" y="200" />
              <mxPoint x="650" y="200" />
            </Array>
          </mxGeometry>
        </mxCell>
        <mxCell id="VfGpLDJga5cBZec-XevN-77" value="Salariul" style="ellipse;whiteSpace=wrap;html=1;" vertex="1" parent="1">
          <mxGeometry x="730" y="290" width="100" height="60" as="geometry" />
        </mxCell>
        <mxCell id="VfGpLDJga5cBZec-XevN-78" value="" style="endArrow=classic;html=1;entryX=0.82;entryY=1.025;entryDx=0;entryDy=0;entryPerimeter=0;exitX=0.03;exitY=0.317;exitDx=0;exitDy=0;exitPerimeter=0;edgeStyle=orthogonalEdgeStyle;" edge="1" parent="1" source="VfGpLDJga5cBZec-XevN-77" target="VfGpLDJga5cBZec-XevN-2">
          <mxGeometry width="50" height="50" relative="1" as="geometry">
            <mxPoint x="700" y="340" as="sourcePoint" />
            <mxPoint x="750" y="290" as="targetPoint" />
            <Array as="points">
              <mxPoint x="690" y="309" />
              <mxPoint x="690" y="201" />
            </Array>
          </mxGeometry>
        </mxCell>
        <object label="Salariul" id="VfGpLDJga5cBZec-XevN-79">
          <mxCell style="text;html=1;strokeColor=none;fillColor=none;align=center;verticalAlign=middle;whiteSpace=wrap;rounded=0;" vertex="1" parent="1">
            <mxGeometry x="610" y="630" width="60" height="20" as="geometry" />
          </mxCell>
        </object>
        <object label="Pretul de transfer" id="VfGpLDJga5cBZec-XevN-80">
          <mxCell style="text;html=1;strokeColor=none;fillColor=none;align=center;verticalAlign=middle;whiteSpace=wrap;rounded=0;" vertex="1" parent="1">
            <mxGeometry x="610" y="650" width="60" height="40" as="geometry" />
          </mxCell>
        </object>
        <mxCell id="VfGpLDJga5cBZec-XevN-81" value="Statutul jucatorului in echipa" style="text;html=1;strokeColor=none;fillColor=none;align=center;verticalAlign=middle;whiteSpace=wrap;rounded=0;" vertex="1" parent="1">
          <mxGeometry x="600" y="700" width="100" height="20" as="geometry" />
        </mxCell>
      </root>
    </mxGraphModel>
  </diagram>
  <diagram id="LF57QYI-AJvjsTcYlHP-" name="EX I (D)">
    <mxGraphModel dx="782" dy="428" grid="1" gridSize="10" guides="1" tooltips="1" connect="1" arrows="1" fold="1" page="1" pageScale="1" pageWidth="850" pageHeight="1100" math="0" shadow="0">
      <root>
        <mxCell id="0" />
        <mxCell id="1" parent="0" />
        <mxCell id="QZI1xBNnyhqGnEY2D4j6-1" value="Profesor" style="whiteSpace=wrap;html=1;align=center;fillColor=#dae8fc;strokeColor=#6c8ebf;" vertex="1" parent="1">
          <mxGeometry x="140" y="160" width="100" height="40" as="geometry" />
        </mxCell>
        <mxCell id="QZI1xBNnyhqGnEY2D4j6-2" value="Student" style="whiteSpace=wrap;html=1;align=center;fillColor=#dae8fc;strokeColor=#6c8ebf;" vertex="1" parent="1">
          <mxGeometry x="590" y="160" width="100" height="40" as="geometry" />
        </mxCell>
        <mxCell id="QZI1xBNnyhqGnEY2D4j6-3" value="Conduce" style="shape=rhombus;perimeter=rhombusPerimeter;whiteSpace=wrap;html=1;align=center;fillColor=#dae8fc;strokeColor=#6c8ebf;" vertex="1" parent="1">
          <mxGeometry x="360" y="150" width="120" height="60" as="geometry" />
        </mxCell>
        <mxCell id="QZI1xBNnyhqGnEY2D4j6-4" value="Profesor" style="shape=table;startSize=30;container=1;collapsible=1;childLayout=tableLayout;fixedRows=1;rowLines=0;fontStyle=1;align=center;resizeLast=1;fillColor=#dae8fc;strokeColor=#6c8ebf;" vertex="1" parent="1">
          <mxGeometry x="80" y="440" width="180" height="180" as="geometry" />
        </mxCell>
        <mxCell id="QZI1xBNnyhqGnEY2D4j6-5" value="" style="shape=partialRectangle;collapsible=0;dropTarget=0;pointerEvents=0;fillColor=none;top=0;left=0;bottom=1;right=0;points=[[0,0.5],[1,0.5]];portConstraint=eastwest;" vertex="1" parent="QZI1xBNnyhqGnEY2D4j6-4">
          <mxGeometry y="30" width="180" height="30" as="geometry" />
        </mxCell>
        <mxCell id="QZI1xBNnyhqGnEY2D4j6-6" value="PK" style="shape=partialRectangle;connectable=0;fillColor=none;top=0;left=0;bottom=0;right=0;fontStyle=1;overflow=hidden;" vertex="1" parent="QZI1xBNnyhqGnEY2D4j6-5">
          <mxGeometry width="30" height="30" as="geometry">
            <mxRectangle width="30" height="30" as="alternateBounds" />
          </mxGeometry>
        </mxCell>
        <mxCell id="QZI1xBNnyhqGnEY2D4j6-7" value="ID_Profesor" style="shape=partialRectangle;connectable=0;fillColor=none;top=0;left=0;bottom=0;right=0;align=left;spacingLeft=6;fontStyle=5;overflow=hidden;" vertex="1" parent="QZI1xBNnyhqGnEY2D4j6-5">
          <mxGeometry x="30" width="150" height="30" as="geometry">
            <mxRectangle width="150" height="30" as="alternateBounds" />
          </mxGeometry>
        </mxCell>
        <mxCell id="QZI1xBNnyhqGnEY2D4j6-8" value="" style="shape=partialRectangle;collapsible=0;dropTarget=0;pointerEvents=0;fillColor=none;top=0;left=0;bottom=0;right=0;points=[[0,0.5],[1,0.5]];portConstraint=eastwest;" vertex="1" parent="QZI1xBNnyhqGnEY2D4j6-4">
          <mxGeometry y="60" width="180" height="30" as="geometry" />
        </mxCell>
        <mxCell id="QZI1xBNnyhqGnEY2D4j6-9" value="" style="shape=partialRectangle;connectable=0;fillColor=none;top=0;left=0;bottom=0;right=0;editable=1;overflow=hidden;" vertex="1" parent="QZI1xBNnyhqGnEY2D4j6-8">
          <mxGeometry width="30" height="30" as="geometry">
            <mxRectangle width="30" height="30" as="alternateBounds" />
          </mxGeometry>
        </mxCell>
        <mxCell id="QZI1xBNnyhqGnEY2D4j6-10" value="Nume" style="shape=partialRectangle;connectable=0;fillColor=none;top=0;left=0;bottom=0;right=0;align=left;spacingLeft=6;overflow=hidden;" vertex="1" parent="QZI1xBNnyhqGnEY2D4j6-8">
          <mxGeometry x="30" width="150" height="30" as="geometry">
            <mxRectangle width="150" height="30" as="alternateBounds" />
          </mxGeometry>
        </mxCell>
        <mxCell id="QZI1xBNnyhqGnEY2D4j6-11" value="" style="shape=partialRectangle;collapsible=0;dropTarget=0;pointerEvents=0;fillColor=none;top=0;left=0;bottom=0;right=0;points=[[0,0.5],[1,0.5]];portConstraint=eastwest;" vertex="1" parent="QZI1xBNnyhqGnEY2D4j6-4">
          <mxGeometry y="90" width="180" height="30" as="geometry" />
        </mxCell>
        <mxCell id="QZI1xBNnyhqGnEY2D4j6-12" value="" style="shape=partialRectangle;connectable=0;fillColor=none;top=0;left=0;bottom=0;right=0;editable=1;overflow=hidden;" vertex="1" parent="QZI1xBNnyhqGnEY2D4j6-11">
          <mxGeometry width="30" height="30" as="geometry">
            <mxRectangle width="30" height="30" as="alternateBounds" />
          </mxGeometry>
        </mxCell>
        <mxCell id="QZI1xBNnyhqGnEY2D4j6-13" value="Salariu" style="shape=partialRectangle;connectable=0;fillColor=none;top=0;left=0;bottom=0;right=0;align=left;spacingLeft=6;overflow=hidden;" vertex="1" parent="QZI1xBNnyhqGnEY2D4j6-11">
          <mxGeometry x="30" width="150" height="30" as="geometry">
            <mxRectangle width="150" height="30" as="alternateBounds" />
          </mxGeometry>
        </mxCell>
        <mxCell id="QZI1xBNnyhqGnEY2D4j6-14" value="" style="shape=partialRectangle;collapsible=0;dropTarget=0;pointerEvents=0;fillColor=none;top=0;left=0;bottom=0;right=0;points=[[0,0.5],[1,0.5]];portConstraint=eastwest;" vertex="1" parent="QZI1xBNnyhqGnEY2D4j6-4">
          <mxGeometry y="120" width="180" height="30" as="geometry" />
        </mxCell>
        <mxCell id="QZI1xBNnyhqGnEY2D4j6-15" value="" style="shape=partialRectangle;connectable=0;fillColor=none;top=0;left=0;bottom=0;right=0;editable=1;overflow=hidden;" vertex="1" parent="QZI1xBNnyhqGnEY2D4j6-14">
          <mxGeometry width="30" height="30" as="geometry">
            <mxRectangle width="30" height="30" as="alternateBounds" />
          </mxGeometry>
        </mxCell>
        <mxCell id="QZI1xBNnyhqGnEY2D4j6-16" value="Grad" style="shape=partialRectangle;connectable=0;fillColor=none;top=0;left=0;bottom=0;right=0;align=left;spacingLeft=6;overflow=hidden;" vertex="1" parent="QZI1xBNnyhqGnEY2D4j6-14">
          <mxGeometry x="30" width="150" height="30" as="geometry">
            <mxRectangle width="150" height="30" as="alternateBounds" />
          </mxGeometry>
        </mxCell>
        <mxCell id="QZI1xBNnyhqGnEY2D4j6-17" value="" style="shape=partialRectangle;collapsible=0;dropTarget=0;pointerEvents=0;fillColor=none;top=0;left=0;bottom=0;right=0;points=[[0,0.5],[1,0.5]];portConstraint=eastwest;" vertex="1" parent="QZI1xBNnyhqGnEY2D4j6-4">
          <mxGeometry y="150" width="180" height="30" as="geometry" />
        </mxCell>
        <mxCell id="QZI1xBNnyhqGnEY2D4j6-18" value="" style="shape=partialRectangle;connectable=0;fillColor=none;top=0;left=0;bottom=0;right=0;editable=1;overflow=hidden;" vertex="1" parent="QZI1xBNnyhqGnEY2D4j6-17">
          <mxGeometry width="30" height="30" as="geometry">
            <mxRectangle width="30" height="30" as="alternateBounds" />
          </mxGeometry>
        </mxCell>
        <mxCell id="QZI1xBNnyhqGnEY2D4j6-19" value="" style="shape=partialRectangle;connectable=0;fillColor=none;top=0;left=0;bottom=0;right=0;align=left;spacingLeft=6;overflow=hidden;" vertex="1" parent="QZI1xBNnyhqGnEY2D4j6-17">
          <mxGeometry x="30" width="150" height="30" as="geometry">
            <mxRectangle width="150" height="30" as="alternateBounds" />
          </mxGeometry>
        </mxCell>
        <mxCell id="QZI1xBNnyhqGnEY2D4j6-20" value="Conduce" style="swimlane;fontStyle=0;childLayout=stackLayout;horizontal=1;startSize=26;horizontalStack=0;resizeParent=1;resizeParentMax=0;resizeLast=0;collapsible=1;marginBottom=0;align=center;fontSize=14;fillColor=#dae8fc;strokeColor=#6c8ebf;" vertex="1" parent="1">
          <mxGeometry x="340" y="440" width="160" height="86" as="geometry" />
        </mxCell>
        <mxCell id="QZI1xBNnyhqGnEY2D4j6-21" value="ID_Profesor" style="text;strokeColor=none;fillColor=none;spacingLeft=4;spacingRight=4;overflow=hidden;rotatable=0;points=[[0,0.5],[1,0.5]];portConstraint=eastwest;fontSize=12;" vertex="1" parent="QZI1xBNnyhqGnEY2D4j6-20">
          <mxGeometry y="26" width="160" height="30" as="geometry" />
        </mxCell>
        <mxCell id="QZI1xBNnyhqGnEY2D4j6-22" value="ID_Student" style="text;strokeColor=none;fillColor=none;spacingLeft=4;spacingRight=4;overflow=hidden;rotatable=0;points=[[0,0.5],[1,0.5]];portConstraint=eastwest;fontSize=12;" vertex="1" parent="QZI1xBNnyhqGnEY2D4j6-20">
          <mxGeometry y="56" width="160" height="30" as="geometry" />
        </mxCell>
        <mxCell id="QZI1xBNnyhqGnEY2D4j6-23" value="Student" style="shape=table;startSize=30;container=1;collapsible=1;childLayout=tableLayout;fixedRows=1;rowLines=0;fontStyle=1;align=center;resizeLast=1;fillColor=#dae8fc;strokeColor=#6c8ebf;" vertex="1" parent="1">
          <mxGeometry x="580" y="440" width="180" height="220" as="geometry" />
        </mxCell>
        <mxCell id="QZI1xBNnyhqGnEY2D4j6-24" value="" style="shape=partialRectangle;collapsible=0;dropTarget=0;pointerEvents=0;fillColor=none;top=0;left=0;bottom=1;right=0;points=[[0,0.5],[1,0.5]];portConstraint=eastwest;" vertex="1" parent="QZI1xBNnyhqGnEY2D4j6-23">
          <mxGeometry y="30" width="180" height="30" as="geometry" />
        </mxCell>
        <mxCell id="QZI1xBNnyhqGnEY2D4j6-25" value="PK" style="shape=partialRectangle;connectable=0;fillColor=none;top=0;left=0;bottom=0;right=0;fontStyle=1;overflow=hidden;" vertex="1" parent="QZI1xBNnyhqGnEY2D4j6-24">
          <mxGeometry width="30" height="30" as="geometry">
            <mxRectangle width="30" height="30" as="alternateBounds" />
          </mxGeometry>
        </mxCell>
        <mxCell id="QZI1xBNnyhqGnEY2D4j6-26" value="ID_Student" style="shape=partialRectangle;connectable=0;fillColor=none;top=0;left=0;bottom=0;right=0;align=left;spacingLeft=6;fontStyle=5;overflow=hidden;" vertex="1" parent="QZI1xBNnyhqGnEY2D4j6-24">
          <mxGeometry x="30" width="150" height="30" as="geometry">
            <mxRectangle width="150" height="30" as="alternateBounds" />
          </mxGeometry>
        </mxCell>
        <mxCell id="QZI1xBNnyhqGnEY2D4j6-27" value="" style="shape=partialRectangle;collapsible=0;dropTarget=0;pointerEvents=0;fillColor=none;top=0;left=0;bottom=0;right=0;points=[[0,0.5],[1,0.5]];portConstraint=eastwest;" vertex="1" parent="QZI1xBNnyhqGnEY2D4j6-23">
          <mxGeometry y="60" width="180" height="30" as="geometry" />
        </mxCell>
        <mxCell id="QZI1xBNnyhqGnEY2D4j6-28" value="" style="shape=partialRectangle;connectable=0;fillColor=none;top=0;left=0;bottom=0;right=0;editable=1;overflow=hidden;" vertex="1" parent="QZI1xBNnyhqGnEY2D4j6-27">
          <mxGeometry width="30" height="30" as="geometry">
            <mxRectangle width="30" height="30" as="alternateBounds" />
          </mxGeometry>
        </mxCell>
        <mxCell id="QZI1xBNnyhqGnEY2D4j6-29" value="Nume" style="shape=partialRectangle;connectable=0;fillColor=none;top=0;left=0;bottom=0;right=0;align=left;spacingLeft=6;overflow=hidden;" vertex="1" parent="QZI1xBNnyhqGnEY2D4j6-27">
          <mxGeometry x="30" width="150" height="30" as="geometry">
            <mxRectangle width="150" height="30" as="alternateBounds" />
          </mxGeometry>
        </mxCell>
        <mxCell id="QZI1xBNnyhqGnEY2D4j6-30" value="" style="shape=partialRectangle;collapsible=0;dropTarget=0;pointerEvents=0;fillColor=none;top=0;left=0;bottom=0;right=0;points=[[0,0.5],[1,0.5]];portConstraint=eastwest;" vertex="1" parent="QZI1xBNnyhqGnEY2D4j6-23">
          <mxGeometry y="90" width="180" height="30" as="geometry" />
        </mxCell>
        <mxCell id="QZI1xBNnyhqGnEY2D4j6-31" value="" style="shape=partialRectangle;connectable=0;fillColor=none;top=0;left=0;bottom=0;right=0;editable=1;overflow=hidden;" vertex="1" parent="QZI1xBNnyhqGnEY2D4j6-30">
          <mxGeometry width="30" height="30" as="geometry">
            <mxRectangle width="30" height="30" as="alternateBounds" />
          </mxGeometry>
        </mxCell>
        <mxCell id="QZI1xBNnyhqGnEY2D4j6-32" value="Varsta" style="shape=partialRectangle;connectable=0;fillColor=none;top=0;left=0;bottom=0;right=0;align=left;spacingLeft=6;overflow=hidden;" vertex="1" parent="QZI1xBNnyhqGnEY2D4j6-30">
          <mxGeometry x="30" width="150" height="30" as="geometry">
            <mxRectangle width="150" height="30" as="alternateBounds" />
          </mxGeometry>
        </mxCell>
        <mxCell id="QZI1xBNnyhqGnEY2D4j6-33" value="" style="shape=partialRectangle;collapsible=0;dropTarget=0;pointerEvents=0;fillColor=none;top=0;left=0;bottom=0;right=0;points=[[0,0.5],[1,0.5]];portConstraint=eastwest;" vertex="1" parent="QZI1xBNnyhqGnEY2D4j6-23">
          <mxGeometry y="120" width="180" height="30" as="geometry" />
        </mxCell>
        <mxCell id="QZI1xBNnyhqGnEY2D4j6-34" value="" style="shape=partialRectangle;connectable=0;fillColor=none;top=0;left=0;bottom=0;right=0;editable=1;overflow=hidden;" vertex="1" parent="QZI1xBNnyhqGnEY2D4j6-33">
          <mxGeometry width="30" height="30" as="geometry">
            <mxRectangle width="30" height="30" as="alternateBounds" />
          </mxGeometry>
        </mxCell>
        <mxCell id="QZI1xBNnyhqGnEY2D4j6-35" value="Facultatea" style="shape=partialRectangle;connectable=0;fillColor=none;top=0;left=0;bottom=0;right=0;align=left;spacingLeft=6;overflow=hidden;" vertex="1" parent="QZI1xBNnyhqGnEY2D4j6-33">
          <mxGeometry x="30" width="150" height="30" as="geometry">
            <mxRectangle width="150" height="30" as="alternateBounds" />
          </mxGeometry>
        </mxCell>
        <mxCell id="QZI1xBNnyhqGnEY2D4j6-36" value="" style="shape=partialRectangle;collapsible=0;dropTarget=0;pointerEvents=0;fillColor=none;top=0;left=0;bottom=0;right=0;points=[[0,0.5],[1,0.5]];portConstraint=eastwest;" vertex="1" parent="QZI1xBNnyhqGnEY2D4j6-23">
          <mxGeometry y="150" width="180" height="30" as="geometry" />
        </mxCell>
        <mxCell id="QZI1xBNnyhqGnEY2D4j6-37" value="" style="shape=partialRectangle;connectable=0;fillColor=none;top=0;left=0;bottom=0;right=0;editable=1;overflow=hidden;" vertex="1" parent="QZI1xBNnyhqGnEY2D4j6-36">
          <mxGeometry width="30" height="30" as="geometry">
            <mxRectangle width="30" height="30" as="alternateBounds" />
          </mxGeometry>
        </mxCell>
        <mxCell id="QZI1xBNnyhqGnEY2D4j6-38" value="Bursa" style="shape=partialRectangle;connectable=0;fillColor=none;top=0;left=0;bottom=0;right=0;align=left;spacingLeft=6;overflow=hidden;" vertex="1" parent="QZI1xBNnyhqGnEY2D4j6-36">
          <mxGeometry x="30" width="150" height="30" as="geometry">
            <mxRectangle width="150" height="30" as="alternateBounds" />
          </mxGeometry>
        </mxCell>
        <mxCell id="QZI1xBNnyhqGnEY2D4j6-39" value="" style="shape=partialRectangle;collapsible=0;dropTarget=0;pointerEvents=0;fillColor=none;top=0;left=0;bottom=0;right=0;points=[[0,0.5],[1,0.5]];portConstraint=eastwest;" vertex="1" parent="QZI1xBNnyhqGnEY2D4j6-23">
          <mxGeometry y="180" width="180" height="30" as="geometry" />
        </mxCell>
        <mxCell id="QZI1xBNnyhqGnEY2D4j6-40" value="" style="shape=partialRectangle;connectable=0;fillColor=none;top=0;left=0;bottom=0;right=0;editable=1;overflow=hidden;" vertex="1" parent="QZI1xBNnyhqGnEY2D4j6-39">
          <mxGeometry width="30" height="30" as="geometry">
            <mxRectangle width="30" height="30" as="alternateBounds" />
          </mxGeometry>
        </mxCell>
        <mxCell id="QZI1xBNnyhqGnEY2D4j6-41" value="Note" style="shape=partialRectangle;connectable=0;fillColor=none;top=0;left=0;bottom=0;right=0;align=left;spacingLeft=6;overflow=hidden;" vertex="1" parent="QZI1xBNnyhqGnEY2D4j6-39">
          <mxGeometry x="30" width="150" height="30" as="geometry">
            <mxRectangle width="150" height="30" as="alternateBounds" />
          </mxGeometry>
        </mxCell>
        <mxCell id="QZI1xBNnyhqGnEY2D4j6-42" style="edgeStyle=orthogonalEdgeStyle;rounded=0;orthogonalLoop=1;jettySize=auto;html=1;entryX=0.25;entryY=0;entryDx=0;entryDy=0;" edge="1" parent="1" source="QZI1xBNnyhqGnEY2D4j6-43" target="QZI1xBNnyhqGnEY2D4j6-1">
          <mxGeometry relative="1" as="geometry" />
        </mxCell>
        <mxCell id="QZI1xBNnyhqGnEY2D4j6-43" value="ID_Profesor" style="ellipse;whiteSpace=wrap;html=1;align=center;fillColor=#ffe6cc;strokeColor=#d79b00;" vertex="1" parent="1">
          <mxGeometry x="50" y="90" width="100" height="40" as="geometry" />
        </mxCell>
        <mxCell id="QZI1xBNnyhqGnEY2D4j6-44" style="edgeStyle=orthogonalEdgeStyle;rounded=0;orthogonalLoop=1;jettySize=auto;html=1;entryX=0.18;entryY=0.05;entryDx=0;entryDy=0;entryPerimeter=0;" edge="1" parent="1" source="QZI1xBNnyhqGnEY2D4j6-45" target="QZI1xBNnyhqGnEY2D4j6-2">
          <mxGeometry relative="1" as="geometry" />
        </mxCell>
        <mxCell id="QZI1xBNnyhqGnEY2D4j6-45" value="ID_Student" style="ellipse;whiteSpace=wrap;html=1;align=center;fillColor=#ffe6cc;strokeColor=#d79b00;" vertex="1" parent="1">
          <mxGeometry x="480" y="80" width="100" height="40" as="geometry" />
        </mxCell>
        <mxCell id="QZI1xBNnyhqGnEY2D4j6-46" style="edgeStyle=orthogonalEdgeStyle;rounded=0;orthogonalLoop=1;jettySize=auto;html=1;entryX=0.75;entryY=0;entryDx=0;entryDy=0;" edge="1" parent="1" source="QZI1xBNnyhqGnEY2D4j6-47" target="QZI1xBNnyhqGnEY2D4j6-1">
          <mxGeometry relative="1" as="geometry" />
        </mxCell>
        <mxCell id="QZI1xBNnyhqGnEY2D4j6-47" value="Nume" style="ellipse;whiteSpace=wrap;html=1;align=center;" vertex="1" parent="1">
          <mxGeometry x="160" y="80" width="100" height="40" as="geometry" />
        </mxCell>
        <mxCell id="QZI1xBNnyhqGnEY2D4j6-48" style="edgeStyle=orthogonalEdgeStyle;rounded=0;orthogonalLoop=1;jettySize=auto;html=1;entryX=0.75;entryY=0;entryDx=0;entryDy=0;" edge="1" parent="1" source="QZI1xBNnyhqGnEY2D4j6-49" target="QZI1xBNnyhqGnEY2D4j6-2">
          <mxGeometry relative="1" as="geometry" />
        </mxCell>
        <mxCell id="QZI1xBNnyhqGnEY2D4j6-49" value="Nume" style="ellipse;whiteSpace=wrap;html=1;align=center;" vertex="1" parent="1">
          <mxGeometry x="620" y="60" width="100" height="40" as="geometry" />
        </mxCell>
        <mxCell id="QZI1xBNnyhqGnEY2D4j6-50" style="edgeStyle=orthogonalEdgeStyle;rounded=0;orthogonalLoop=1;jettySize=auto;html=1;entryX=1;entryY=0.25;entryDx=0;entryDy=0;" edge="1" parent="1" source="QZI1xBNnyhqGnEY2D4j6-51" target="QZI1xBNnyhqGnEY2D4j6-2">
          <mxGeometry relative="1" as="geometry" />
        </mxCell>
        <mxCell id="QZI1xBNnyhqGnEY2D4j6-51" value="Varsta" style="ellipse;whiteSpace=wrap;html=1;align=center;" vertex="1" parent="1">
          <mxGeometry x="740" y="80" width="100" height="40" as="geometry" />
        </mxCell>
        <mxCell id="QZI1xBNnyhqGnEY2D4j6-52" style="edgeStyle=orthogonalEdgeStyle;rounded=0;orthogonalLoop=1;jettySize=auto;html=1;entryX=1;entryY=0.75;entryDx=0;entryDy=0;" edge="1" parent="1" source="QZI1xBNnyhqGnEY2D4j6-53" target="QZI1xBNnyhqGnEY2D4j6-2">
          <mxGeometry relative="1" as="geometry" />
        </mxCell>
        <mxCell id="QZI1xBNnyhqGnEY2D4j6-53" value="Facultate" style="ellipse;whiteSpace=wrap;html=1;align=center;" vertex="1" parent="1">
          <mxGeometry x="740" y="170" width="100" height="40" as="geometry" />
        </mxCell>
        <mxCell id="QZI1xBNnyhqGnEY2D4j6-54" style="edgeStyle=orthogonalEdgeStyle;rounded=0;orthogonalLoop=1;jettySize=auto;html=1;entryX=0.75;entryY=1;entryDx=0;entryDy=0;" edge="1" parent="1" source="QZI1xBNnyhqGnEY2D4j6-55" target="QZI1xBNnyhqGnEY2D4j6-2">
          <mxGeometry relative="1" as="geometry" />
        </mxCell>
        <mxCell id="QZI1xBNnyhqGnEY2D4j6-55" value="Bursa" style="ellipse;whiteSpace=wrap;html=1;align=center;" vertex="1" parent="1">
          <mxGeometry x="640" y="240" width="100" height="40" as="geometry" />
        </mxCell>
        <mxCell id="QZI1xBNnyhqGnEY2D4j6-56" style="edgeStyle=orthogonalEdgeStyle;rounded=0;orthogonalLoop=1;jettySize=auto;html=1;entryX=0.5;entryY=0;entryDx=0;entryDy=0;" edge="1" parent="1" source="QZI1xBNnyhqGnEY2D4j6-57" target="QZI1xBNnyhqGnEY2D4j6-3">
          <mxGeometry relative="1" as="geometry" />
        </mxCell>
        <mxCell id="QZI1xBNnyhqGnEY2D4j6-57" value="ID_Profesor" style="ellipse;whiteSpace=wrap;html=1;align=center;fillColor=#d5e8d4;strokeColor=#82b366;" vertex="1" parent="1">
          <mxGeometry x="370" y="80" width="100" height="40" as="geometry" />
        </mxCell>
        <mxCell id="QZI1xBNnyhqGnEY2D4j6-58" style="edgeStyle=orthogonalEdgeStyle;rounded=0;orthogonalLoop=1;jettySize=auto;html=1;entryX=0.5;entryY=1;entryDx=0;entryDy=0;" edge="1" parent="1" source="QZI1xBNnyhqGnEY2D4j6-59" target="QZI1xBNnyhqGnEY2D4j6-3">
          <mxGeometry relative="1" as="geometry" />
        </mxCell>
        <mxCell id="QZI1xBNnyhqGnEY2D4j6-59" value="ID_Student" style="ellipse;whiteSpace=wrap;html=1;align=center;fillColor=#d5e8d4;strokeColor=#82b366;" vertex="1" parent="1">
          <mxGeometry x="370" y="240" width="100" height="40" as="geometry" />
        </mxCell>
        <mxCell id="QZI1xBNnyhqGnEY2D4j6-60" value="" style="edgeStyle=entityRelationEdgeStyle;fontSize=12;html=1;endArrow=ERoneToMany;entryX=-0.031;entryY=0.267;entryDx=0;entryDy=0;exitX=1;exitY=0.5;exitDx=0;exitDy=0;entryPerimeter=0;" edge="1" parent="1" source="QZI1xBNnyhqGnEY2D4j6-5" target="QZI1xBNnyhqGnEY2D4j6-21">
          <mxGeometry width="100" height="100" relative="1" as="geometry">
            <mxPoint x="240" y="390" as="sourcePoint" />
            <mxPoint x="360" y="390" as="targetPoint" />
          </mxGeometry>
        </mxCell>
        <mxCell id="QZI1xBNnyhqGnEY2D4j6-61" value="" style="edgeStyle=entityRelationEdgeStyle;fontSize=12;html=1;endArrow=ERmandOne;startArrow=ERmandOne;entryX=0;entryY=0.5;entryDx=0;entryDy=0;" edge="1" parent="1" source="QZI1xBNnyhqGnEY2D4j6-22" target="QZI1xBNnyhqGnEY2D4j6-24">
          <mxGeometry width="100" height="100" relative="1" as="geometry">
            <mxPoint x="470" y="390" as="sourcePoint" />
            <mxPoint x="580" y="390" as="targetPoint" />
          </mxGeometry>
        </mxCell>
        <mxCell id="QZI1xBNnyhqGnEY2D4j6-62" style="edgeStyle=orthogonalEdgeStyle;rounded=0;orthogonalLoop=1;jettySize=auto;html=1;entryX=0.32;entryY=1.075;entryDx=0;entryDy=0;entryPerimeter=0;" edge="1" parent="1" source="QZI1xBNnyhqGnEY2D4j6-63" target="QZI1xBNnyhqGnEY2D4j6-2">
          <mxGeometry relative="1" as="geometry" />
        </mxCell>
        <mxCell id="QZI1xBNnyhqGnEY2D4j6-63" value="Note" style="ellipse;whiteSpace=wrap;html=1;align=center;" vertex="1" parent="1">
          <mxGeometry x="520" y="240" width="100" height="40" as="geometry" />
        </mxCell>
        <mxCell id="QZI1xBNnyhqGnEY2D4j6-64" style="edgeStyle=orthogonalEdgeStyle;rounded=0;orthogonalLoop=1;jettySize=auto;html=1;entryX=0;entryY=0.5;entryDx=0;entryDy=0;" edge="1" parent="1" source="QZI1xBNnyhqGnEY2D4j6-65" target="QZI1xBNnyhqGnEY2D4j6-1">
          <mxGeometry relative="1" as="geometry" />
        </mxCell>
        <mxCell id="QZI1xBNnyhqGnEY2D4j6-65" value="Salariu" style="ellipse;whiteSpace=wrap;html=1;align=center;" vertex="1" parent="1">
          <mxGeometry x="50" y="240" width="100" height="40" as="geometry" />
        </mxCell>
        <mxCell id="QZI1xBNnyhqGnEY2D4j6-66" style="edgeStyle=orthogonalEdgeStyle;rounded=0;orthogonalLoop=1;jettySize=auto;html=1;entryX=0.75;entryY=1;entryDx=0;entryDy=0;" edge="1" parent="1" source="QZI1xBNnyhqGnEY2D4j6-67" target="QZI1xBNnyhqGnEY2D4j6-1">
          <mxGeometry relative="1" as="geometry" />
        </mxCell>
        <mxCell id="QZI1xBNnyhqGnEY2D4j6-67" value="Grad" style="ellipse;whiteSpace=wrap;html=1;align=center;" vertex="1" parent="1">
          <mxGeometry x="170" y="240" width="100" height="40" as="geometry" />
        </mxCell>
        <mxCell id="QZI1xBNnyhqGnEY2D4j6-68" value="" style="edgeStyle=entityRelationEdgeStyle;fontSize=12;html=1;endArrow=ERoneToMany;entryX=0;entryY=0.5;entryDx=0;entryDy=0;exitX=1;exitY=0.5;exitDx=0;exitDy=0;" edge="1" parent="1" source="QZI1xBNnyhqGnEY2D4j6-1" target="QZI1xBNnyhqGnEY2D4j6-3">
          <mxGeometry width="100" height="100" relative="1" as="geometry">
            <mxPoint x="250" y="300" as="sourcePoint" />
            <mxPoint x="350" y="200" as="targetPoint" />
          </mxGeometry>
        </mxCell>
        <mxCell id="QZI1xBNnyhqGnEY2D4j6-69" value="" style="edgeStyle=entityRelationEdgeStyle;fontSize=12;html=1;endArrow=ERmandOne;startArrow=ERmandOne;entryX=0;entryY=0.5;entryDx=0;entryDy=0;exitX=1;exitY=0.5;exitDx=0;exitDy=0;" edge="1" parent="1" source="QZI1xBNnyhqGnEY2D4j6-3" target="QZI1xBNnyhqGnEY2D4j6-2">
          <mxGeometry width="100" height="100" relative="1" as="geometry">
            <mxPoint x="470" y="280" as="sourcePoint" />
            <mxPoint x="570" y="180" as="targetPoint" />
          </mxGeometry>
        </mxCell>
      </root>
    </mxGraphModel>
  </diagram>
  <diagram id="7Expryb5m8vA-P6wej_9" name="EX I (E)">
    <mxGraphModel dx="782" dy="428" grid="1" gridSize="10" guides="1" tooltips="1" connect="1" arrows="1" fold="1" page="1" pageScale="1" pageWidth="850" pageHeight="1100" math="0" shadow="0">
      <root>
        <mxCell id="0" />
        <mxCell id="1" parent="0" />
        <mxCell id="ROc_W5GbQqQg1xSf42qc-1" value="Factura" style="whiteSpace=wrap;html=1;align=center;fillColor=#dae8fc;strokeColor=#6c8ebf;" vertex="1" parent="1">
          <mxGeometry x="140" y="160" width="100" height="40" as="geometry" />
        </mxCell>
        <mxCell id="ROc_W5GbQqQg1xSf42qc-2" value="Produse" style="whiteSpace=wrap;html=1;align=center;fillColor=#dae8fc;strokeColor=#6c8ebf;" vertex="1" parent="1">
          <mxGeometry x="590" y="160" width="100" height="40" as="geometry" />
        </mxCell>
        <mxCell id="ROc_W5GbQqQg1xSf42qc-3" value="Contine" style="shape=rhombus;perimeter=rhombusPerimeter;whiteSpace=wrap;html=1;align=center;fillColor=#dae8fc;strokeColor=#6c8ebf;" vertex="1" parent="1">
          <mxGeometry x="360" y="150" width="120" height="60" as="geometry" />
        </mxCell>
        <mxCell id="ROc_W5GbQqQg1xSf42qc-4" value="Contine" style="swimlane;fontStyle=0;childLayout=stackLayout;horizontal=1;startSize=26;horizontalStack=0;resizeParent=1;resizeParentMax=0;resizeLast=0;collapsible=1;marginBottom=0;align=center;fontSize=14;" vertex="1" parent="1">
          <mxGeometry x="340" y="440" width="160" height="86" as="geometry" />
        </mxCell>
        <mxCell id="ROc_W5GbQqQg1xSf42qc-5" value="ID_Factura" style="text;strokeColor=none;fillColor=none;spacingLeft=4;spacingRight=4;overflow=hidden;rotatable=0;points=[[0,0.5],[1,0.5]];portConstraint=eastwest;fontSize=12;" vertex="1" parent="ROc_W5GbQqQg1xSf42qc-4">
          <mxGeometry y="26" width="160" height="30" as="geometry" />
        </mxCell>
        <mxCell id="ROc_W5GbQqQg1xSf42qc-6" value="ID_Produs" style="text;strokeColor=none;fillColor=none;spacingLeft=4;spacingRight=4;overflow=hidden;rotatable=0;points=[[0,0.5],[1,0.5]];portConstraint=eastwest;fontSize=12;" vertex="1" parent="ROc_W5GbQqQg1xSf42qc-4">
          <mxGeometry y="56" width="160" height="30" as="geometry" />
        </mxCell>
        <mxCell id="ROc_W5GbQqQg1xSf42qc-7" value="Produse" style="shape=table;startSize=30;container=1;collapsible=1;childLayout=tableLayout;fixedRows=1;rowLines=0;fontStyle=1;align=center;resizeLast=1;" vertex="1" parent="1">
          <mxGeometry x="580" y="440" width="180" height="190" as="geometry" />
        </mxCell>
        <mxCell id="ROc_W5GbQqQg1xSf42qc-8" value="" style="shape=partialRectangle;collapsible=0;dropTarget=0;pointerEvents=0;fillColor=none;top=0;left=0;bottom=1;right=0;points=[[0,0.5],[1,0.5]];portConstraint=eastwest;" vertex="1" parent="ROc_W5GbQqQg1xSf42qc-7">
          <mxGeometry y="30" width="180" height="30" as="geometry" />
        </mxCell>
        <mxCell id="ROc_W5GbQqQg1xSf42qc-9" value="PK" style="shape=partialRectangle;connectable=0;fillColor=none;top=0;left=0;bottom=0;right=0;fontStyle=1;overflow=hidden;" vertex="1" parent="ROc_W5GbQqQg1xSf42qc-8">
          <mxGeometry width="30" height="30" as="geometry">
            <mxRectangle width="30" height="30" as="alternateBounds" />
          </mxGeometry>
        </mxCell>
        <mxCell id="ROc_W5GbQqQg1xSf42qc-10" value="ID_Produs" style="shape=partialRectangle;connectable=0;fillColor=none;top=0;left=0;bottom=0;right=0;align=left;spacingLeft=6;fontStyle=5;overflow=hidden;" vertex="1" parent="ROc_W5GbQqQg1xSf42qc-8">
          <mxGeometry x="30" width="150" height="30" as="geometry">
            <mxRectangle width="150" height="30" as="alternateBounds" />
          </mxGeometry>
        </mxCell>
        <mxCell id="ROc_W5GbQqQg1xSf42qc-11" value="" style="shape=partialRectangle;collapsible=0;dropTarget=0;pointerEvents=0;fillColor=none;top=0;left=0;bottom=0;right=0;points=[[0,0.5],[1,0.5]];portConstraint=eastwest;" vertex="1" parent="ROc_W5GbQqQg1xSf42qc-7">
          <mxGeometry y="60" width="180" height="30" as="geometry" />
        </mxCell>
        <mxCell id="ROc_W5GbQqQg1xSf42qc-12" value="" style="shape=partialRectangle;connectable=0;fillColor=none;top=0;left=0;bottom=0;right=0;editable=1;overflow=hidden;" vertex="1" parent="ROc_W5GbQqQg1xSf42qc-11">
          <mxGeometry width="30" height="30" as="geometry">
            <mxRectangle width="30" height="30" as="alternateBounds" />
          </mxGeometry>
        </mxCell>
        <mxCell id="ROc_W5GbQqQg1xSf42qc-13" value="Denumire" style="shape=partialRectangle;connectable=0;fillColor=none;top=0;left=0;bottom=0;right=0;align=left;spacingLeft=6;overflow=hidden;" vertex="1" parent="ROc_W5GbQqQg1xSf42qc-11">
          <mxGeometry x="30" width="150" height="30" as="geometry">
            <mxRectangle width="150" height="30" as="alternateBounds" />
          </mxGeometry>
        </mxCell>
        <mxCell id="ROc_W5GbQqQg1xSf42qc-14" value="" style="shape=partialRectangle;collapsible=0;dropTarget=0;pointerEvents=0;fillColor=none;top=0;left=0;bottom=0;right=0;points=[[0,0.5],[1,0.5]];portConstraint=eastwest;" vertex="1" parent="ROc_W5GbQqQg1xSf42qc-7">
          <mxGeometry y="90" width="180" height="30" as="geometry" />
        </mxCell>
        <mxCell id="ROc_W5GbQqQg1xSf42qc-15" value="" style="shape=partialRectangle;connectable=0;fillColor=none;top=0;left=0;bottom=0;right=0;editable=1;overflow=hidden;" vertex="1" parent="ROc_W5GbQqQg1xSf42qc-14">
          <mxGeometry width="30" height="30" as="geometry">
            <mxRectangle width="30" height="30" as="alternateBounds" />
          </mxGeometry>
        </mxCell>
        <mxCell id="ROc_W5GbQqQg1xSf42qc-16" value="Pret" style="shape=partialRectangle;connectable=0;fillColor=none;top=0;left=0;bottom=0;right=0;align=left;spacingLeft=6;overflow=hidden;" vertex="1" parent="ROc_W5GbQqQg1xSf42qc-14">
          <mxGeometry x="30" width="150" height="30" as="geometry">
            <mxRectangle width="150" height="30" as="alternateBounds" />
          </mxGeometry>
        </mxCell>
        <mxCell id="ROc_W5GbQqQg1xSf42qc-17" value="" style="shape=partialRectangle;collapsible=0;dropTarget=0;pointerEvents=0;fillColor=none;top=0;left=0;bottom=0;right=0;points=[[0,0.5],[1,0.5]];portConstraint=eastwest;" vertex="1" parent="ROc_W5GbQqQg1xSf42qc-7">
          <mxGeometry y="120" width="180" height="30" as="geometry" />
        </mxCell>
        <mxCell id="ROc_W5GbQqQg1xSf42qc-18" value="" style="shape=partialRectangle;connectable=0;fillColor=none;top=0;left=0;bottom=0;right=0;editable=1;overflow=hidden;" vertex="1" parent="ROc_W5GbQqQg1xSf42qc-17">
          <mxGeometry width="30" height="30" as="geometry">
            <mxRectangle width="30" height="30" as="alternateBounds" />
          </mxGeometry>
        </mxCell>
        <mxCell id="ROc_W5GbQqQg1xSf42qc-19" value="Termen de &#xa;valabilitate" style="shape=partialRectangle;connectable=0;fillColor=none;top=0;left=0;bottom=0;right=0;align=left;spacingLeft=6;overflow=hidden;" vertex="1" parent="ROc_W5GbQqQg1xSf42qc-17">
          <mxGeometry x="30" width="150" height="30" as="geometry">
            <mxRectangle width="150" height="30" as="alternateBounds" />
          </mxGeometry>
        </mxCell>
        <mxCell id="ROc_W5GbQqQg1xSf42qc-20" value="" style="shape=partialRectangle;collapsible=0;dropTarget=0;pointerEvents=0;fillColor=none;top=0;left=0;bottom=0;right=0;points=[[0,0.5],[1,0.5]];portConstraint=eastwest;" vertex="1" parent="ROc_W5GbQqQg1xSf42qc-7">
          <mxGeometry y="150" width="180" height="30" as="geometry" />
        </mxCell>
        <mxCell id="ROc_W5GbQqQg1xSf42qc-21" value="" style="shape=partialRectangle;connectable=0;fillColor=none;top=0;left=0;bottom=0;right=0;editable=1;overflow=hidden;" vertex="1" parent="ROc_W5GbQqQg1xSf42qc-20">
          <mxGeometry width="30" height="30" as="geometry">
            <mxRectangle width="30" height="30" as="alternateBounds" />
          </mxGeometry>
        </mxCell>
        <mxCell id="ROc_W5GbQqQg1xSf42qc-22" value="Producator" style="shape=partialRectangle;connectable=0;fillColor=none;top=0;left=0;bottom=0;right=0;align=left;spacingLeft=6;overflow=hidden;" vertex="1" parent="ROc_W5GbQqQg1xSf42qc-20">
          <mxGeometry x="30" width="150" height="30" as="geometry">
            <mxRectangle width="150" height="30" as="alternateBounds" />
          </mxGeometry>
        </mxCell>
        <mxCell id="ROc_W5GbQqQg1xSf42qc-23" style="edgeStyle=orthogonalEdgeStyle;rounded=0;orthogonalLoop=1;jettySize=auto;html=1;entryX=0.25;entryY=0;entryDx=0;entryDy=0;" edge="1" parent="1" source="ROc_W5GbQqQg1xSf42qc-24" target="ROc_W5GbQqQg1xSf42qc-1">
          <mxGeometry relative="1" as="geometry" />
        </mxCell>
        <mxCell id="ROc_W5GbQqQg1xSf42qc-24" value="ID_Factura" style="ellipse;whiteSpace=wrap;html=1;align=center;fillColor=#ffe6cc;strokeColor=#d79b00;" vertex="1" parent="1">
          <mxGeometry x="50" y="90" width="100" height="40" as="geometry" />
        </mxCell>
        <mxCell id="ROc_W5GbQqQg1xSf42qc-25" style="edgeStyle=orthogonalEdgeStyle;rounded=0;orthogonalLoop=1;jettySize=auto;html=1;entryX=0.18;entryY=0.05;entryDx=0;entryDy=0;entryPerimeter=0;" edge="1" parent="1" source="ROc_W5GbQqQg1xSf42qc-26" target="ROc_W5GbQqQg1xSf42qc-2">
          <mxGeometry relative="1" as="geometry" />
        </mxCell>
        <mxCell id="ROc_W5GbQqQg1xSf42qc-26" value="ID_Produs" style="ellipse;whiteSpace=wrap;html=1;align=center;fillColor=#ffe6cc;strokeColor=#d79b00;" vertex="1" parent="1">
          <mxGeometry x="550" y="80" width="100" height="40" as="geometry" />
        </mxCell>
        <mxCell id="ROc_W5GbQqQg1xSf42qc-27" style="edgeStyle=orthogonalEdgeStyle;rounded=0;orthogonalLoop=1;jettySize=auto;html=1;entryX=0.75;entryY=0;entryDx=0;entryDy=0;" edge="1" parent="1" source="ROc_W5GbQqQg1xSf42qc-28" target="ROc_W5GbQqQg1xSf42qc-1">
          <mxGeometry relative="1" as="geometry" />
        </mxCell>
        <mxCell id="ROc_W5GbQqQg1xSf42qc-28" value="Data" style="ellipse;whiteSpace=wrap;html=1;align=center;" vertex="1" parent="1">
          <mxGeometry x="180" y="60" width="100" height="40" as="geometry" />
        </mxCell>
        <mxCell id="ROc_W5GbQqQg1xSf42qc-29" style="edgeStyle=orthogonalEdgeStyle;rounded=0;orthogonalLoop=1;jettySize=auto;html=1;entryX=0.75;entryY=0;entryDx=0;entryDy=0;" edge="1" parent="1" source="ROc_W5GbQqQg1xSf42qc-30" target="ROc_W5GbQqQg1xSf42qc-2">
          <mxGeometry relative="1" as="geometry" />
        </mxCell>
        <mxCell id="ROc_W5GbQqQg1xSf42qc-30" value="Denumire" style="ellipse;whiteSpace=wrap;html=1;align=center;" vertex="1" parent="1">
          <mxGeometry x="660" y="80" width="100" height="40" as="geometry" />
        </mxCell>
        <mxCell id="ROc_W5GbQqQg1xSf42qc-31" style="edgeStyle=orthogonalEdgeStyle;rounded=0;orthogonalLoop=1;jettySize=auto;html=1;entryX=1;entryY=0.25;entryDx=0;entryDy=0;" edge="1" parent="1" source="ROc_W5GbQqQg1xSf42qc-32" target="ROc_W5GbQqQg1xSf42qc-2">
          <mxGeometry relative="1" as="geometry" />
        </mxCell>
        <mxCell id="ROc_W5GbQqQg1xSf42qc-32" value="Pret" style="ellipse;whiteSpace=wrap;html=1;align=center;" vertex="1" parent="1">
          <mxGeometry x="727" y="160" width="100" height="40" as="geometry" />
        </mxCell>
        <mxCell id="ROc_W5GbQqQg1xSf42qc-33" style="edgeStyle=orthogonalEdgeStyle;rounded=0;orthogonalLoop=1;jettySize=auto;html=1;entryX=0.5;entryY=1;entryDx=0;entryDy=0;" edge="1" parent="1" source="ROc_W5GbQqQg1xSf42qc-34" target="ROc_W5GbQqQg1xSf42qc-2">
          <mxGeometry relative="1" as="geometry" />
        </mxCell>
        <mxCell id="ROc_W5GbQqQg1xSf42qc-34" value="Termen de valabilitate" style="ellipse;whiteSpace=wrap;html=1;align=center;" vertex="1" parent="1">
          <mxGeometry x="650" y="240" width="100" height="40" as="geometry" />
        </mxCell>
        <mxCell id="ROc_W5GbQqQg1xSf42qc-35" style="edgeStyle=orthogonalEdgeStyle;rounded=0;orthogonalLoop=1;jettySize=auto;html=1;entryX=0.08;entryY=1.025;entryDx=0;entryDy=0;entryPerimeter=0;" edge="1" parent="1" source="ROc_W5GbQqQg1xSf42qc-36" target="ROc_W5GbQqQg1xSf42qc-2">
          <mxGeometry relative="1" as="geometry" />
        </mxCell>
        <mxCell id="ROc_W5GbQqQg1xSf42qc-36" value="Producator" style="ellipse;whiteSpace=wrap;html=1;align=center;" vertex="1" parent="1">
          <mxGeometry x="470" y="210" width="100" height="40" as="geometry" />
        </mxCell>
        <mxCell id="ROc_W5GbQqQg1xSf42qc-37" style="edgeStyle=orthogonalEdgeStyle;rounded=0;orthogonalLoop=1;jettySize=auto;html=1;entryX=0.5;entryY=0;entryDx=0;entryDy=0;" edge="1" parent="1" source="ROc_W5GbQqQg1xSf42qc-38" target="ROc_W5GbQqQg1xSf42qc-3">
          <mxGeometry relative="1" as="geometry" />
        </mxCell>
        <mxCell id="ROc_W5GbQqQg1xSf42qc-38" value="ID_Factura" style="ellipse;whiteSpace=wrap;html=1;align=center;fillColor=#d5e8d4;strokeColor=#82b366;" vertex="1" parent="1">
          <mxGeometry x="370" y="60" width="100" height="40" as="geometry" />
        </mxCell>
        <mxCell id="ROc_W5GbQqQg1xSf42qc-39" style="edgeStyle=orthogonalEdgeStyle;rounded=0;orthogonalLoop=1;jettySize=auto;html=1;entryX=0.5;entryY=1;entryDx=0;entryDy=0;" edge="1" parent="1" source="ROc_W5GbQqQg1xSf42qc-40" target="ROc_W5GbQqQg1xSf42qc-3">
          <mxGeometry relative="1" as="geometry" />
        </mxCell>
        <mxCell id="ROc_W5GbQqQg1xSf42qc-40" value="ID_Produs" style="ellipse;whiteSpace=wrap;html=1;align=center;fillColor=#d5e8d4;strokeColor=#82b366;" vertex="1" parent="1">
          <mxGeometry x="370" y="250" width="100" height="40" as="geometry" />
        </mxCell>
        <mxCell id="ROc_W5GbQqQg1xSf42qc-41" style="edgeStyle=orthogonalEdgeStyle;rounded=0;orthogonalLoop=1;jettySize=auto;html=1;entryX=0;entryY=0.5;entryDx=0;entryDy=0;" edge="1" parent="1" source="ROc_W5GbQqQg1xSf42qc-42" target="ROc_W5GbQqQg1xSf42qc-1">
          <mxGeometry relative="1" as="geometry" />
        </mxCell>
        <mxCell id="ROc_W5GbQqQg1xSf42qc-42" value="Suma" style="ellipse;whiteSpace=wrap;html=1;align=center;" vertex="1" parent="1">
          <mxGeometry x="50" y="240" width="100" height="40" as="geometry" />
        </mxCell>
        <mxCell id="ROc_W5GbQqQg1xSf42qc-43" value="" style="edgeStyle=entityRelationEdgeStyle;fontSize=12;html=1;endArrow=ERoneToMany;entryX=0;entryY=0.5;entryDx=0;entryDy=0;exitX=1;exitY=0.5;exitDx=0;exitDy=0;" edge="1" parent="1" source="ROc_W5GbQqQg1xSf42qc-1" target="ROc_W5GbQqQg1xSf42qc-3">
          <mxGeometry width="100" height="100" relative="1" as="geometry">
            <mxPoint x="250" y="300" as="sourcePoint" />
            <mxPoint x="350" y="200" as="targetPoint" />
          </mxGeometry>
        </mxCell>
        <mxCell id="ROc_W5GbQqQg1xSf42qc-44" value="Factura" style="shape=table;startSize=30;container=1;collapsible=1;childLayout=tableLayout;fixedRows=1;rowLines=0;fontStyle=1;align=center;resizeLast=1;" vertex="1" parent="1">
          <mxGeometry x="80" y="440" width="180" height="160" as="geometry" />
        </mxCell>
        <mxCell id="ROc_W5GbQqQg1xSf42qc-45" value="" style="shape=partialRectangle;collapsible=0;dropTarget=0;pointerEvents=0;fillColor=none;top=0;left=0;bottom=1;right=0;points=[[0,0.5],[1,0.5]];portConstraint=eastwest;" vertex="1" parent="ROc_W5GbQqQg1xSf42qc-44">
          <mxGeometry y="30" width="180" height="30" as="geometry" />
        </mxCell>
        <mxCell id="ROc_W5GbQqQg1xSf42qc-46" value="PK" style="shape=partialRectangle;connectable=0;fillColor=none;top=0;left=0;bottom=0;right=0;fontStyle=1;overflow=hidden;" vertex="1" parent="ROc_W5GbQqQg1xSf42qc-45">
          <mxGeometry width="30" height="30" as="geometry">
            <mxRectangle width="30" height="30" as="alternateBounds" />
          </mxGeometry>
        </mxCell>
        <mxCell id="ROc_W5GbQqQg1xSf42qc-47" value="ID_Factura" style="shape=partialRectangle;connectable=0;fillColor=none;top=0;left=0;bottom=0;right=0;align=left;spacingLeft=6;fontStyle=5;overflow=hidden;" vertex="1" parent="ROc_W5GbQqQg1xSf42qc-45">
          <mxGeometry x="30" width="150" height="30" as="geometry">
            <mxRectangle width="150" height="30" as="alternateBounds" />
          </mxGeometry>
        </mxCell>
        <mxCell id="ROc_W5GbQqQg1xSf42qc-48" value="" style="shape=partialRectangle;collapsible=0;dropTarget=0;pointerEvents=0;fillColor=none;top=0;left=0;bottom=0;right=0;points=[[0,0.5],[1,0.5]];portConstraint=eastwest;" vertex="1" parent="ROc_W5GbQqQg1xSf42qc-44">
          <mxGeometry y="60" width="180" height="30" as="geometry" />
        </mxCell>
        <mxCell id="ROc_W5GbQqQg1xSf42qc-49" value="" style="shape=partialRectangle;connectable=0;fillColor=none;top=0;left=0;bottom=0;right=0;editable=1;overflow=hidden;" vertex="1" parent="ROc_W5GbQqQg1xSf42qc-48">
          <mxGeometry width="30" height="30" as="geometry">
            <mxRectangle width="30" height="30" as="alternateBounds" />
          </mxGeometry>
        </mxCell>
        <mxCell id="ROc_W5GbQqQg1xSf42qc-50" value="Data" style="shape=partialRectangle;connectable=0;fillColor=none;top=0;left=0;bottom=0;right=0;align=left;spacingLeft=6;overflow=hidden;" vertex="1" parent="ROc_W5GbQqQg1xSf42qc-48">
          <mxGeometry x="30" width="150" height="30" as="geometry">
            <mxRectangle width="150" height="30" as="alternateBounds" />
          </mxGeometry>
        </mxCell>
        <mxCell id="ROc_W5GbQqQg1xSf42qc-51" value="" style="shape=partialRectangle;collapsible=0;dropTarget=0;pointerEvents=0;fillColor=none;top=0;left=0;bottom=0;right=0;points=[[0,0.5],[1,0.5]];portConstraint=eastwest;" vertex="1" parent="ROc_W5GbQqQg1xSf42qc-44">
          <mxGeometry y="90" width="180" height="30" as="geometry" />
        </mxCell>
        <mxCell id="ROc_W5GbQqQg1xSf42qc-52" value="" style="shape=partialRectangle;connectable=0;fillColor=none;top=0;left=0;bottom=0;right=0;editable=1;overflow=hidden;" vertex="1" parent="ROc_W5GbQqQg1xSf42qc-51">
          <mxGeometry width="30" height="30" as="geometry">
            <mxRectangle width="30" height="30" as="alternateBounds" />
          </mxGeometry>
        </mxCell>
        <mxCell id="ROc_W5GbQqQg1xSf42qc-53" value="Suma" style="shape=partialRectangle;connectable=0;fillColor=none;top=0;left=0;bottom=0;right=0;align=left;spacingLeft=6;overflow=hidden;" vertex="1" parent="ROc_W5GbQqQg1xSf42qc-51">
          <mxGeometry x="30" width="150" height="30" as="geometry">
            <mxRectangle width="150" height="30" as="alternateBounds" />
          </mxGeometry>
        </mxCell>
        <mxCell id="ROc_W5GbQqQg1xSf42qc-54" value="" style="shape=partialRectangle;collapsible=0;dropTarget=0;pointerEvents=0;fillColor=none;top=0;left=0;bottom=0;right=0;points=[[0,0.5],[1,0.5]];portConstraint=eastwest;" vertex="1" parent="ROc_W5GbQqQg1xSf42qc-44">
          <mxGeometry y="120" width="180" height="30" as="geometry" />
        </mxCell>
        <mxCell id="ROc_W5GbQqQg1xSf42qc-55" value="" style="shape=partialRectangle;connectable=0;fillColor=none;top=0;left=0;bottom=0;right=0;editable=1;overflow=hidden;" vertex="1" parent="ROc_W5GbQqQg1xSf42qc-54">
          <mxGeometry width="30" height="30" as="geometry">
            <mxRectangle width="30" height="30" as="alternateBounds" />
          </mxGeometry>
        </mxCell>
        <mxCell id="ROc_W5GbQqQg1xSf42qc-56" value="Cantitatea" style="shape=partialRectangle;connectable=0;fillColor=none;top=0;left=0;bottom=0;right=0;align=left;spacingLeft=6;overflow=hidden;" vertex="1" parent="ROc_W5GbQqQg1xSf42qc-54">
          <mxGeometry x="30" width="150" height="30" as="geometry">
            <mxRectangle width="150" height="30" as="alternateBounds" />
          </mxGeometry>
        </mxCell>
        <mxCell id="ROc_W5GbQqQg1xSf42qc-57" style="edgeStyle=orthogonalEdgeStyle;rounded=0;orthogonalLoop=1;jettySize=auto;html=1;entryX=0.75;entryY=1;entryDx=0;entryDy=0;" edge="1" parent="1" source="ROc_W5GbQqQg1xSf42qc-58" target="ROc_W5GbQqQg1xSf42qc-1">
          <mxGeometry relative="1" as="geometry" />
        </mxCell>
        <mxCell id="ROc_W5GbQqQg1xSf42qc-58" value="Cantitatea" style="ellipse;whiteSpace=wrap;html=1;align=center;" vertex="1" parent="1">
          <mxGeometry x="180" y="240" width="100" height="40" as="geometry" />
        </mxCell>
        <mxCell id="ROc_W5GbQqQg1xSf42qc-59" value="" style="edgeStyle=entityRelationEdgeStyle;fontSize=12;html=1;endArrow=ERoneToMany;entryX=0;entryY=0.5;entryDx=0;entryDy=0;exitX=1;exitY=0.25;exitDx=0;exitDy=0;" edge="1" parent="1" source="ROc_W5GbQqQg1xSf42qc-44" target="ROc_W5GbQqQg1xSf42qc-5">
          <mxGeometry width="100" height="100" relative="1" as="geometry">
            <mxPoint x="220" y="390" as="sourcePoint" />
            <mxPoint x="340" y="390" as="targetPoint" />
          </mxGeometry>
        </mxCell>
        <mxCell id="ROc_W5GbQqQg1xSf42qc-60" value="" style="edgeStyle=entityRelationEdgeStyle;fontSize=12;html=1;endArrow=ERoneToMany;entryX=1;entryY=0.5;entryDx=0;entryDy=0;exitX=0;exitY=0.5;exitDx=0;exitDy=0;" edge="1" parent="1" source="ROc_W5GbQqQg1xSf42qc-2" target="ROc_W5GbQqQg1xSf42qc-3">
          <mxGeometry width="100" height="100" relative="1" as="geometry">
            <mxPoint x="430" y="209.5" as="sourcePoint" />
            <mxPoint x="550" y="209.5" as="targetPoint" />
          </mxGeometry>
        </mxCell>
        <mxCell id="ROc_W5GbQqQg1xSf42qc-61" value="" style="edgeStyle=entityRelationEdgeStyle;fontSize=12;html=1;endArrow=ERoneToMany;entryX=1;entryY=0.5;entryDx=0;entryDy=0;exitX=0;exitY=0.5;exitDx=0;exitDy=0;" edge="1" parent="1" source="ROc_W5GbQqQg1xSf42qc-8" target="ROc_W5GbQqQg1xSf42qc-6">
          <mxGeometry width="100" height="100" relative="1" as="geometry">
            <mxPoint x="490" y="370" as="sourcePoint" />
            <mxPoint x="610" y="370" as="targetPoint" />
          </mxGeometry>
        </mxCell>
      </root>
    </mxGraphModel>
  </diagram>
  <diagram id="_fXsNu6IozCeL9_XwUJC" name="EX I (F)">
    <mxGraphModel dx="1422" dy="778" grid="1" gridSize="10" guides="1" tooltips="1" connect="1" arrows="1" fold="1" page="1" pageScale="1" pageWidth="850" pageHeight="1100" math="0" shadow="0">
      <root>
        <mxCell id="0" />
        <mxCell id="1" parent="0" />
        <mxCell id="yakPtZgWk12SAyYyIdqa-1" value="Client" style="whiteSpace=wrap;html=1;align=center;fillColor=#dae8fc;strokeColor=#6c8ebf;sketch=1;" vertex="1" parent="1">
          <mxGeometry x="140" y="210" width="100" height="40" as="geometry" />
        </mxCell>
        <mxCell id="yakPtZgWk12SAyYyIdqa-2" value="Contract" style="whiteSpace=wrap;html=1;align=center;fillColor=#dae8fc;strokeColor=#6c8ebf;sketch=1;" vertex="1" parent="1">
          <mxGeometry x="590" y="210" width="100" height="40" as="geometry" />
        </mxCell>
        <mxCell id="yakPtZgWk12SAyYyIdqa-3" value="Semneaza" style="shape=rhombus;perimeter=rhombusPerimeter;whiteSpace=wrap;html=1;align=center;fillColor=#dae8fc;strokeColor=#6c8ebf;sketch=1;" vertex="1" parent="1">
          <mxGeometry x="360" y="200" width="120" height="60" as="geometry" />
        </mxCell>
        <mxCell id="yakPtZgWk12SAyYyIdqa-4" value="Semneaza" style="swimlane;fontStyle=0;childLayout=stackLayout;horizontal=1;startSize=26;horizontalStack=0;resizeParent=1;resizeParentMax=0;resizeLast=0;collapsible=1;marginBottom=0;align=center;fontSize=14;fillColor=#dae8fc;strokeColor=#6c8ebf;sketch=1;" vertex="1" parent="1">
          <mxGeometry x="340" y="490" width="160" height="86" as="geometry" />
        </mxCell>
        <mxCell id="yakPtZgWk12SAyYyIdqa-5" value="ID_Client" style="text;strokeColor=none;fillColor=none;spacingLeft=4;spacingRight=4;overflow=hidden;rotatable=0;points=[[0,0.5],[1,0.5]];portConstraint=eastwest;fontSize=12;sketch=1;" vertex="1" parent="yakPtZgWk12SAyYyIdqa-4">
          <mxGeometry y="26" width="160" height="30" as="geometry" />
        </mxCell>
        <mxCell id="yakPtZgWk12SAyYyIdqa-6" value="ID_Contract" style="text;strokeColor=none;fillColor=none;spacingLeft=4;spacingRight=4;overflow=hidden;rotatable=0;points=[[0,0.5],[1,0.5]];portConstraint=eastwest;fontSize=12;sketch=1;" vertex="1" parent="yakPtZgWk12SAyYyIdqa-4">
          <mxGeometry y="56" width="160" height="30" as="geometry" />
        </mxCell>
        <mxCell id="yakPtZgWk12SAyYyIdqa-7" value="Contract" style="shape=table;startSize=30;container=1;collapsible=1;childLayout=tableLayout;fixedRows=1;rowLines=0;fontStyle=1;align=center;resizeLast=1;fillColor=#dae8fc;strokeColor=#6c8ebf;sketch=1;" vertex="1" parent="1">
          <mxGeometry x="580" y="490" width="180" height="190" as="geometry" />
        </mxCell>
        <mxCell id="yakPtZgWk12SAyYyIdqa-8" value="" style="shape=partialRectangle;collapsible=0;dropTarget=0;pointerEvents=0;fillColor=none;top=0;left=0;bottom=1;right=0;points=[[0,0.5],[1,0.5]];portConstraint=eastwest;sketch=1;" vertex="1" parent="yakPtZgWk12SAyYyIdqa-7">
          <mxGeometry y="30" width="180" height="30" as="geometry" />
        </mxCell>
        <mxCell id="yakPtZgWk12SAyYyIdqa-9" value="PK" style="shape=partialRectangle;connectable=0;fillColor=none;top=0;left=0;bottom=0;right=0;fontStyle=1;overflow=hidden;sketch=1;" vertex="1" parent="yakPtZgWk12SAyYyIdqa-8">
          <mxGeometry width="30" height="30" as="geometry">
            <mxRectangle width="30" height="30" as="alternateBounds" />
          </mxGeometry>
        </mxCell>
        <mxCell id="yakPtZgWk12SAyYyIdqa-10" value="ID_Contract" style="shape=partialRectangle;connectable=0;fillColor=none;top=0;left=0;bottom=0;right=0;align=left;spacingLeft=6;fontStyle=5;overflow=hidden;sketch=1;" vertex="1" parent="yakPtZgWk12SAyYyIdqa-8">
          <mxGeometry x="30" width="150" height="30" as="geometry">
            <mxRectangle width="150" height="30" as="alternateBounds" />
          </mxGeometry>
        </mxCell>
        <mxCell id="yakPtZgWk12SAyYyIdqa-11" value="" style="shape=partialRectangle;collapsible=0;dropTarget=0;pointerEvents=0;fillColor=none;top=0;left=0;bottom=0;right=0;points=[[0,0.5],[1,0.5]];portConstraint=eastwest;sketch=1;" vertex="1" parent="yakPtZgWk12SAyYyIdqa-7">
          <mxGeometry y="60" width="180" height="30" as="geometry" />
        </mxCell>
        <mxCell id="yakPtZgWk12SAyYyIdqa-12" value="" style="shape=partialRectangle;connectable=0;fillColor=none;top=0;left=0;bottom=0;right=0;editable=1;overflow=hidden;sketch=1;" vertex="1" parent="yakPtZgWk12SAyYyIdqa-11">
          <mxGeometry width="30" height="30" as="geometry">
            <mxRectangle width="30" height="30" as="alternateBounds" />
          </mxGeometry>
        </mxCell>
        <mxCell id="yakPtZgWk12SAyYyIdqa-13" value="Tip" style="shape=partialRectangle;connectable=0;fillColor=none;top=0;left=0;bottom=0;right=0;align=left;spacingLeft=6;overflow=hidden;sketch=1;" vertex="1" parent="yakPtZgWk12SAyYyIdqa-11">
          <mxGeometry x="30" width="150" height="30" as="geometry">
            <mxRectangle width="150" height="30" as="alternateBounds" />
          </mxGeometry>
        </mxCell>
        <mxCell id="yakPtZgWk12SAyYyIdqa-14" value="" style="shape=partialRectangle;collapsible=0;dropTarget=0;pointerEvents=0;fillColor=none;top=0;left=0;bottom=0;right=0;points=[[0,0.5],[1,0.5]];portConstraint=eastwest;sketch=1;" vertex="1" parent="yakPtZgWk12SAyYyIdqa-7">
          <mxGeometry y="90" width="180" height="30" as="geometry" />
        </mxCell>
        <mxCell id="yakPtZgWk12SAyYyIdqa-15" value="" style="shape=partialRectangle;connectable=0;fillColor=none;top=0;left=0;bottom=0;right=0;editable=1;overflow=hidden;sketch=1;" vertex="1" parent="yakPtZgWk12SAyYyIdqa-14">
          <mxGeometry width="30" height="30" as="geometry">
            <mxRectangle width="30" height="30" as="alternateBounds" />
          </mxGeometry>
        </mxCell>
        <mxCell id="yakPtZgWk12SAyYyIdqa-16" value="Termen" style="shape=partialRectangle;connectable=0;fillColor=none;top=0;left=0;bottom=0;right=0;align=left;spacingLeft=6;overflow=hidden;sketch=1;" vertex="1" parent="yakPtZgWk12SAyYyIdqa-14">
          <mxGeometry x="30" width="150" height="30" as="geometry">
            <mxRectangle width="150" height="30" as="alternateBounds" />
          </mxGeometry>
        </mxCell>
        <mxCell id="yakPtZgWk12SAyYyIdqa-17" value="" style="shape=partialRectangle;collapsible=0;dropTarget=0;pointerEvents=0;fillColor=none;top=0;left=0;bottom=0;right=0;points=[[0,0.5],[1,0.5]];portConstraint=eastwest;sketch=1;" vertex="1" parent="yakPtZgWk12SAyYyIdqa-7">
          <mxGeometry y="120" width="180" height="30" as="geometry" />
        </mxCell>
        <mxCell id="yakPtZgWk12SAyYyIdqa-18" value="" style="shape=partialRectangle;connectable=0;fillColor=none;top=0;left=0;bottom=0;right=0;editable=1;overflow=hidden;sketch=1;" vertex="1" parent="yakPtZgWk12SAyYyIdqa-17">
          <mxGeometry width="30" height="30" as="geometry">
            <mxRectangle width="30" height="30" as="alternateBounds" />
          </mxGeometry>
        </mxCell>
        <mxCell id="yakPtZgWk12SAyYyIdqa-19" value="Nr. Pagini" style="shape=partialRectangle;connectable=0;fillColor=none;top=0;left=0;bottom=0;right=0;align=left;spacingLeft=6;overflow=hidden;sketch=1;" vertex="1" parent="yakPtZgWk12SAyYyIdqa-17">
          <mxGeometry x="30" width="150" height="30" as="geometry">
            <mxRectangle width="150" height="30" as="alternateBounds" />
          </mxGeometry>
        </mxCell>
        <mxCell id="yakPtZgWk12SAyYyIdqa-20" value="" style="shape=partialRectangle;collapsible=0;dropTarget=0;pointerEvents=0;fillColor=none;top=0;left=0;bottom=0;right=0;points=[[0,0.5],[1,0.5]];portConstraint=eastwest;sketch=1;" vertex="1" parent="yakPtZgWk12SAyYyIdqa-7">
          <mxGeometry y="150" width="180" height="30" as="geometry" />
        </mxCell>
        <mxCell id="yakPtZgWk12SAyYyIdqa-21" value="" style="shape=partialRectangle;connectable=0;fillColor=none;top=0;left=0;bottom=0;right=0;editable=1;overflow=hidden;sketch=1;" vertex="1" parent="yakPtZgWk12SAyYyIdqa-20">
          <mxGeometry width="30" height="30" as="geometry">
            <mxRectangle width="30" height="30" as="alternateBounds" />
          </mxGeometry>
        </mxCell>
        <mxCell id="yakPtZgWk12SAyYyIdqa-22" value="Stampila" style="shape=partialRectangle;connectable=0;fillColor=none;top=0;left=0;bottom=0;right=0;align=left;spacingLeft=6;overflow=hidden;sketch=1;" vertex="1" parent="yakPtZgWk12SAyYyIdqa-20">
          <mxGeometry x="30" width="150" height="30" as="geometry">
            <mxRectangle width="150" height="30" as="alternateBounds" />
          </mxGeometry>
        </mxCell>
        <mxCell id="yakPtZgWk12SAyYyIdqa-23" style="edgeStyle=orthogonalEdgeStyle;rounded=0;orthogonalLoop=1;jettySize=auto;html=1;entryX=0.25;entryY=0;entryDx=0;entryDy=0;sketch=1;" edge="1" parent="1" source="yakPtZgWk12SAyYyIdqa-24" target="yakPtZgWk12SAyYyIdqa-1">
          <mxGeometry relative="1" as="geometry" />
        </mxCell>
        <mxCell id="yakPtZgWk12SAyYyIdqa-24" value="ID_Client" style="ellipse;whiteSpace=wrap;html=1;align=center;fillColor=#ffe6cc;strokeColor=#d79b00;sketch=1;" vertex="1" parent="1">
          <mxGeometry x="50" y="140" width="100" height="40" as="geometry" />
        </mxCell>
        <mxCell id="yakPtZgWk12SAyYyIdqa-25" style="edgeStyle=orthogonalEdgeStyle;rounded=0;orthogonalLoop=1;jettySize=auto;html=1;entryX=0.18;entryY=0.05;entryDx=0;entryDy=0;entryPerimeter=0;sketch=1;" edge="1" parent="1" source="yakPtZgWk12SAyYyIdqa-26" target="yakPtZgWk12SAyYyIdqa-2">
          <mxGeometry relative="1" as="geometry" />
        </mxCell>
        <mxCell id="yakPtZgWk12SAyYyIdqa-26" value="ID_Contract" style="ellipse;whiteSpace=wrap;html=1;align=center;fillColor=#ffe6cc;strokeColor=#d79b00;sketch=1;" vertex="1" parent="1">
          <mxGeometry x="550" y="130" width="100" height="40" as="geometry" />
        </mxCell>
        <mxCell id="yakPtZgWk12SAyYyIdqa-27" style="edgeStyle=orthogonalEdgeStyle;rounded=0;orthogonalLoop=1;jettySize=auto;html=1;entryX=0.75;entryY=0;entryDx=0;entryDy=0;sketch=1;" edge="1" parent="1" source="yakPtZgWk12SAyYyIdqa-28" target="yakPtZgWk12SAyYyIdqa-1">
          <mxGeometry relative="1" as="geometry" />
        </mxCell>
        <mxCell id="yakPtZgWk12SAyYyIdqa-28" value="Nume" style="ellipse;whiteSpace=wrap;html=1;align=center;sketch=1;" vertex="1" parent="1">
          <mxGeometry x="160" y="130" width="100" height="40" as="geometry" />
        </mxCell>
        <mxCell id="yakPtZgWk12SAyYyIdqa-29" style="edgeStyle=orthogonalEdgeStyle;rounded=0;orthogonalLoop=1;jettySize=auto;html=1;entryX=0.75;entryY=0;entryDx=0;entryDy=0;sketch=1;" edge="1" parent="1" source="yakPtZgWk12SAyYyIdqa-30" target="yakPtZgWk12SAyYyIdqa-2">
          <mxGeometry relative="1" as="geometry" />
        </mxCell>
        <mxCell id="yakPtZgWk12SAyYyIdqa-30" value="Termen" style="ellipse;whiteSpace=wrap;html=1;align=center;sketch=1;" vertex="1" parent="1">
          <mxGeometry x="660" y="130" width="100" height="40" as="geometry" />
        </mxCell>
        <mxCell id="yakPtZgWk12SAyYyIdqa-31" style="edgeStyle=orthogonalEdgeStyle;rounded=0;orthogonalLoop=1;jettySize=auto;html=1;entryX=1;entryY=0.25;entryDx=0;entryDy=0;sketch=1;" edge="1" parent="1" source="yakPtZgWk12SAyYyIdqa-32" target="yakPtZgWk12SAyYyIdqa-2">
          <mxGeometry relative="1" as="geometry" />
        </mxCell>
        <mxCell id="yakPtZgWk12SAyYyIdqa-32" value="Stampila" style="ellipse;whiteSpace=wrap;html=1;align=center;sketch=1;" vertex="1" parent="1">
          <mxGeometry x="727" y="200" width="100" height="40" as="geometry" />
        </mxCell>
        <mxCell id="yakPtZgWk12SAyYyIdqa-33" style="edgeStyle=orthogonalEdgeStyle;rounded=0;orthogonalLoop=1;jettySize=auto;html=1;entryX=1;entryY=0.75;entryDx=0;entryDy=0;sketch=1;" edge="1" parent="1" source="yakPtZgWk12SAyYyIdqa-34" target="yakPtZgWk12SAyYyIdqa-2">
          <mxGeometry relative="1" as="geometry">
            <Array as="points">
              <mxPoint x="710" y="290" />
              <mxPoint x="710" y="240" />
            </Array>
          </mxGeometry>
        </mxCell>
        <mxCell id="yakPtZgWk12SAyYyIdqa-34" value="Nr. Pagini" style="ellipse;whiteSpace=wrap;html=1;align=center;sketch=1;" vertex="1" parent="1">
          <mxGeometry x="727" y="270" width="100" height="40" as="geometry" />
        </mxCell>
        <mxCell id="yakPtZgWk12SAyYyIdqa-35" style="edgeStyle=orthogonalEdgeStyle;rounded=0;orthogonalLoop=1;jettySize=auto;html=1;sketch=1;" edge="1" parent="1" source="yakPtZgWk12SAyYyIdqa-36">
          <mxGeometry relative="1" as="geometry">
            <mxPoint x="600" y="250" as="targetPoint" />
            <Array as="points">
              <mxPoint x="590" y="250" />
            </Array>
          </mxGeometry>
        </mxCell>
        <mxCell id="yakPtZgWk12SAyYyIdqa-36" value="Tip" style="ellipse;whiteSpace=wrap;html=1;align=center;sketch=1;" vertex="1" parent="1">
          <mxGeometry x="540" y="290" width="100" height="40" as="geometry" />
        </mxCell>
        <mxCell id="yakPtZgWk12SAyYyIdqa-37" style="edgeStyle=orthogonalEdgeStyle;rounded=0;orthogonalLoop=1;jettySize=auto;html=1;entryX=0.5;entryY=0;entryDx=0;entryDy=0;sketch=1;" edge="1" parent="1" source="yakPtZgWk12SAyYyIdqa-38" target="yakPtZgWk12SAyYyIdqa-3">
          <mxGeometry relative="1" as="geometry" />
        </mxCell>
        <mxCell id="yakPtZgWk12SAyYyIdqa-38" value="ID_Client" style="ellipse;whiteSpace=wrap;html=1;align=center;fillColor=#d5e8d4;strokeColor=#82b366;sketch=1;" vertex="1" parent="1">
          <mxGeometry x="370" y="110" width="100" height="40" as="geometry" />
        </mxCell>
        <mxCell id="yakPtZgWk12SAyYyIdqa-39" style="edgeStyle=orthogonalEdgeStyle;rounded=0;orthogonalLoop=1;jettySize=auto;html=1;entryX=0.5;entryY=1;entryDx=0;entryDy=0;sketch=1;" edge="1" parent="1" source="yakPtZgWk12SAyYyIdqa-40" target="yakPtZgWk12SAyYyIdqa-3">
          <mxGeometry relative="1" as="geometry" />
        </mxCell>
        <mxCell id="yakPtZgWk12SAyYyIdqa-40" value="ID_Contract" style="ellipse;whiteSpace=wrap;html=1;align=center;fillColor=#d5e8d4;strokeColor=#82b366;sketch=1;" vertex="1" parent="1">
          <mxGeometry x="370" y="310" width="100" height="40" as="geometry" />
        </mxCell>
        <mxCell id="yakPtZgWk12SAyYyIdqa-41" style="edgeStyle=orthogonalEdgeStyle;rounded=0;orthogonalLoop=1;jettySize=auto;html=1;entryX=0.19;entryY=1.1;entryDx=0;entryDy=0;entryPerimeter=0;sketch=1;" edge="1" parent="1" source="yakPtZgWk12SAyYyIdqa-42" target="yakPtZgWk12SAyYyIdqa-1">
          <mxGeometry relative="1" as="geometry" />
        </mxCell>
        <mxCell id="yakPtZgWk12SAyYyIdqa-42" value="Semnatura" style="ellipse;whiteSpace=wrap;html=1;align=center;sketch=1;" vertex="1" parent="1">
          <mxGeometry x="70" y="290" width="100" height="40" as="geometry" />
        </mxCell>
        <mxCell id="yakPtZgWk12SAyYyIdqa-43" value="" style="edgeStyle=entityRelationEdgeStyle;fontSize=12;html=1;endArrow=ERoneToMany;entryX=0;entryY=0.5;entryDx=0;entryDy=0;exitX=1;exitY=0.5;exitDx=0;exitDy=0;sketch=1;" edge="1" parent="1" source="yakPtZgWk12SAyYyIdqa-1" target="yakPtZgWk12SAyYyIdqa-3">
          <mxGeometry width="100" height="100" relative="1" as="geometry">
            <mxPoint x="250" y="350" as="sourcePoint" />
            <mxPoint x="350" y="250" as="targetPoint" />
          </mxGeometry>
        </mxCell>
        <mxCell id="yakPtZgWk12SAyYyIdqa-44" value="Client" style="shape=table;startSize=30;container=1;collapsible=1;childLayout=tableLayout;fixedRows=1;rowLines=0;fontStyle=1;align=center;resizeLast=1;fillColor=#dae8fc;strokeColor=#6c8ebf;sketch=1;" vertex="1" parent="1">
          <mxGeometry x="80" y="490" width="180" height="190" as="geometry" />
        </mxCell>
        <mxCell id="yakPtZgWk12SAyYyIdqa-45" value="" style="shape=partialRectangle;collapsible=0;dropTarget=0;pointerEvents=0;fillColor=none;top=0;left=0;bottom=1;right=0;points=[[0,0.5],[1,0.5]];portConstraint=eastwest;sketch=1;" vertex="1" parent="yakPtZgWk12SAyYyIdqa-44">
          <mxGeometry y="30" width="180" height="30" as="geometry" />
        </mxCell>
        <mxCell id="yakPtZgWk12SAyYyIdqa-46" value="PK" style="shape=partialRectangle;connectable=0;fillColor=none;top=0;left=0;bottom=0;right=0;fontStyle=1;overflow=hidden;sketch=1;" vertex="1" parent="yakPtZgWk12SAyYyIdqa-45">
          <mxGeometry width="30" height="30" as="geometry">
            <mxRectangle width="30" height="30" as="alternateBounds" />
          </mxGeometry>
        </mxCell>
        <mxCell id="yakPtZgWk12SAyYyIdqa-47" value="ID_Client" style="shape=partialRectangle;connectable=0;fillColor=none;top=0;left=0;bottom=0;right=0;align=left;spacingLeft=6;fontStyle=5;overflow=hidden;sketch=1;" vertex="1" parent="yakPtZgWk12SAyYyIdqa-45">
          <mxGeometry x="30" width="150" height="30" as="geometry">
            <mxRectangle width="150" height="30" as="alternateBounds" />
          </mxGeometry>
        </mxCell>
        <mxCell id="yakPtZgWk12SAyYyIdqa-48" value="" style="shape=partialRectangle;collapsible=0;dropTarget=0;pointerEvents=0;fillColor=none;top=0;left=0;bottom=0;right=0;points=[[0,0.5],[1,0.5]];portConstraint=eastwest;sketch=1;" vertex="1" parent="yakPtZgWk12SAyYyIdqa-44">
          <mxGeometry y="60" width="180" height="30" as="geometry" />
        </mxCell>
        <mxCell id="yakPtZgWk12SAyYyIdqa-49" value="" style="shape=partialRectangle;connectable=0;fillColor=none;top=0;left=0;bottom=0;right=0;editable=1;overflow=hidden;sketch=1;" vertex="1" parent="yakPtZgWk12SAyYyIdqa-48">
          <mxGeometry width="30" height="30" as="geometry">
            <mxRectangle width="30" height="30" as="alternateBounds" />
          </mxGeometry>
        </mxCell>
        <mxCell id="yakPtZgWk12SAyYyIdqa-50" value="Nume" style="shape=partialRectangle;connectable=0;fillColor=none;top=0;left=0;bottom=0;right=0;align=left;spacingLeft=6;overflow=hidden;sketch=1;" vertex="1" parent="yakPtZgWk12SAyYyIdqa-48">
          <mxGeometry x="30" width="150" height="30" as="geometry">
            <mxRectangle width="150" height="30" as="alternateBounds" />
          </mxGeometry>
        </mxCell>
        <mxCell id="yakPtZgWk12SAyYyIdqa-51" value="" style="shape=partialRectangle;collapsible=0;dropTarget=0;pointerEvents=0;fillColor=none;top=0;left=0;bottom=0;right=0;points=[[0,0.5],[1,0.5]];portConstraint=eastwest;sketch=1;" vertex="1" parent="yakPtZgWk12SAyYyIdqa-44">
          <mxGeometry y="90" width="180" height="30" as="geometry" />
        </mxCell>
        <mxCell id="yakPtZgWk12SAyYyIdqa-52" value="" style="shape=partialRectangle;connectable=0;fillColor=none;top=0;left=0;bottom=0;right=0;editable=1;overflow=hidden;sketch=1;" vertex="1" parent="yakPtZgWk12SAyYyIdqa-51">
          <mxGeometry width="30" height="30" as="geometry">
            <mxRectangle width="30" height="30" as="alternateBounds" />
          </mxGeometry>
        </mxCell>
        <mxCell id="yakPtZgWk12SAyYyIdqa-53" value="Loc de munca" style="shape=partialRectangle;connectable=0;fillColor=none;top=0;left=0;bottom=0;right=0;align=left;spacingLeft=6;overflow=hidden;sketch=1;" vertex="1" parent="yakPtZgWk12SAyYyIdqa-51">
          <mxGeometry x="30" width="150" height="30" as="geometry">
            <mxRectangle width="150" height="30" as="alternateBounds" />
          </mxGeometry>
        </mxCell>
        <mxCell id="yakPtZgWk12SAyYyIdqa-54" value="" style="shape=partialRectangle;collapsible=0;dropTarget=0;pointerEvents=0;fillColor=none;top=0;left=0;bottom=0;right=0;points=[[0,0.5],[1,0.5]];portConstraint=eastwest;sketch=1;" vertex="1" parent="yakPtZgWk12SAyYyIdqa-44">
          <mxGeometry y="120" width="180" height="30" as="geometry" />
        </mxCell>
        <mxCell id="yakPtZgWk12SAyYyIdqa-55" value="" style="shape=partialRectangle;connectable=0;fillColor=none;top=0;left=0;bottom=0;right=0;editable=1;overflow=hidden;sketch=1;" vertex="1" parent="yakPtZgWk12SAyYyIdqa-54">
          <mxGeometry width="30" height="30" as="geometry">
            <mxRectangle width="30" height="30" as="alternateBounds" />
          </mxGeometry>
        </mxCell>
        <mxCell id="yakPtZgWk12SAyYyIdqa-56" value="Semnatura" style="shape=partialRectangle;connectable=0;fillColor=none;top=0;left=0;bottom=0;right=0;align=left;spacingLeft=6;overflow=hidden;sketch=1;" vertex="1" parent="yakPtZgWk12SAyYyIdqa-54">
          <mxGeometry x="30" width="150" height="30" as="geometry">
            <mxRectangle width="150" height="30" as="alternateBounds" />
          </mxGeometry>
        </mxCell>
        <mxCell id="yakPtZgWk12SAyYyIdqa-57" value="" style="shape=partialRectangle;collapsible=0;dropTarget=0;pointerEvents=0;fillColor=none;top=0;left=0;bottom=0;right=0;points=[[0,0.5],[1,0.5]];portConstraint=eastwest;sketch=1;" vertex="1" parent="yakPtZgWk12SAyYyIdqa-44">
          <mxGeometry y="150" width="180" height="30" as="geometry" />
        </mxCell>
        <mxCell id="yakPtZgWk12SAyYyIdqa-58" value="" style="shape=partialRectangle;connectable=0;fillColor=none;top=0;left=0;bottom=0;right=0;editable=1;overflow=hidden;sketch=1;" vertex="1" parent="yakPtZgWk12SAyYyIdqa-57">
          <mxGeometry width="30" height="30" as="geometry">
            <mxRectangle width="30" height="30" as="alternateBounds" />
          </mxGeometry>
        </mxCell>
        <mxCell id="yakPtZgWk12SAyYyIdqa-59" value="Date de contact" style="shape=partialRectangle;connectable=0;fillColor=none;top=0;left=0;bottom=0;right=0;align=left;spacingLeft=6;overflow=hidden;sketch=1;" vertex="1" parent="yakPtZgWk12SAyYyIdqa-57">
          <mxGeometry x="30" width="150" height="30" as="geometry">
            <mxRectangle width="150" height="30" as="alternateBounds" />
          </mxGeometry>
        </mxCell>
        <mxCell id="yakPtZgWk12SAyYyIdqa-60" style="edgeStyle=orthogonalEdgeStyle;rounded=0;orthogonalLoop=1;jettySize=auto;html=1;entryX=0.75;entryY=1;entryDx=0;entryDy=0;sketch=1;" edge="1" parent="1" source="yakPtZgWk12SAyYyIdqa-61" target="yakPtZgWk12SAyYyIdqa-1">
          <mxGeometry relative="1" as="geometry" />
        </mxCell>
        <mxCell id="yakPtZgWk12SAyYyIdqa-61" value="Date de contact" style="ellipse;whiteSpace=wrap;html=1;align=center;sketch=1;" vertex="1" parent="1">
          <mxGeometry x="180" y="290" width="100" height="40" as="geometry" />
        </mxCell>
        <mxCell id="yakPtZgWk12SAyYyIdqa-62" value="" style="edgeStyle=entityRelationEdgeStyle;fontSize=12;html=1;endArrow=ERoneToMany;entryX=0;entryY=0.5;entryDx=0;entryDy=0;exitX=1;exitY=0.25;exitDx=0;exitDy=0;sketch=1;" edge="1" parent="1" source="yakPtZgWk12SAyYyIdqa-44" target="yakPtZgWk12SAyYyIdqa-5">
          <mxGeometry width="100" height="100" relative="1" as="geometry">
            <mxPoint x="220" y="440" as="sourcePoint" />
            <mxPoint x="340" y="440" as="targetPoint" />
          </mxGeometry>
        </mxCell>
        <mxCell id="yakPtZgWk12SAyYyIdqa-63" style="edgeStyle=orthogonalEdgeStyle;rounded=0;orthogonalLoop=1;jettySize=auto;html=1;entryX=0;entryY=0.5;entryDx=0;entryDy=0;sketch=1;" edge="1" parent="1" source="yakPtZgWk12SAyYyIdqa-64" target="yakPtZgWk12SAyYyIdqa-1">
          <mxGeometry relative="1" as="geometry" />
        </mxCell>
        <mxCell id="yakPtZgWk12SAyYyIdqa-64" value="Loc de munca" style="ellipse;whiteSpace=wrap;html=1;align=center;sketch=1;" vertex="1" parent="1">
          <mxGeometry y="210" width="100" height="40" as="geometry" />
        </mxCell>
        <mxCell id="yakPtZgWk12SAyYyIdqa-65" value="" style="edgeStyle=entityRelationEdgeStyle;fontSize=12;html=1;endArrow=ERmandOne;startArrow=ERmandOne;entryX=0;entryY=0.5;entryDx=0;entryDy=0;exitX=1;exitY=0.5;exitDx=0;exitDy=0;sketch=1;" edge="1" parent="1" source="yakPtZgWk12SAyYyIdqa-3" target="yakPtZgWk12SAyYyIdqa-2">
          <mxGeometry width="100" height="100" relative="1" as="geometry">
            <mxPoint x="460" y="320" as="sourcePoint" />
            <mxPoint x="560" y="220" as="targetPoint" />
          </mxGeometry>
        </mxCell>
        <mxCell id="yakPtZgWk12SAyYyIdqa-66" value="" style="edgeStyle=entityRelationEdgeStyle;fontSize=12;html=1;endArrow=ERmandOne;startArrow=ERmandOne;entryX=0;entryY=0.5;entryDx=0;entryDy=0;exitX=1;exitY=0.5;exitDx=0;exitDy=0;sketch=1;" edge="1" parent="1" source="yakPtZgWk12SAyYyIdqa-6" target="yakPtZgWk12SAyYyIdqa-8">
          <mxGeometry width="100" height="100" relative="1" as="geometry">
            <mxPoint x="500" y="460" as="sourcePoint" />
            <mxPoint x="610" y="460" as="targetPoint" />
          </mxGeometry>
        </mxCell>
      </root>
    </mxGraphModel>
  </diagram>
</mxfile>
